<?xml version="1.0" encoding="UTF-8"?>
<svg id="Camada_1" xmlns="http://www.w3.org/2000/svg" version="1.1" viewBox="0 0 500 500">
  <!-- Generator: Adobe Illustrator 29.6.1, SVG Export Plug-In . SVG Version: 2.1.1 Build 9)  -->
  <defs>
    <style>
      .st0 {
        fill: #1d1d1b;
      }

      .st1 {
        fill: #fafbfc;
      }

      .st2 {
        fill: #dda128;
        stroke: #fff;
        stroke-miterlimit: 10;
      }
    </style>
  </defs>
  <g>
    <path id="BR-AC" class="st2" d="M29.15,192.3l-1.51-.03.39-1.31-.15-.6-.18-.36-.91-.51-.1-.33.2-.83-.56-1.41-.79-.46-4.06-.91-5.32-.14.2-.41,1.8-1.64.64-.89.21-.87-.16-.89-.49-.66-.6-.32-1.22-2.14-.56-.32-.65-.14-.82-.82-.67-1.72-1.45-1.11-.71-2.62-.63-1.19-1.36-.78-.06-.85.59.07.3-.38.05-.49-.14-.3-1.54-.67-.26-.48-1.57-1.37.03-.27.45-.04.36-.96v-.95s2.17-.28,2.17-.28l.36-.28-.16-.98-.85-1.14h0l13.01,5.42,17.14,4.1,8.8,2.28,19.16,10.27,20.66,8.79h0l2.15.91h0l-.22.35-1.14.48-1.51,1.15-2.07,2.02-1.2.62-.48-.13-1.11.13-.04.41-1.39.94-1.51.72-1.04,1.33-.32.85-.44.2-.85-.54-.55-.09-1.72.04-.49.19-.46.33-.26.62-1.77,2.52-2.73.91-.61.5-1.41.37-.75.02.06-1.53-.99.14-2.57-.56-3.8-.34-3.69.28-.48-.42-1.64-.12-2.58,1.33-1.98.45-1.22-.49-1.01-1.04-1.19.84.03-12.72.04-.8.34-.51.05-1.7-.19-.64.7-.85.35-.83-.84.14-2.15,1.88-1.16.73-1.49,1.72-1.41.49-.47.78-1.31.72-8.55.11Z"/>
    <path id="BR-AL" class="st2" d="M414.21,186.89l-.14-.53-1.03-.57-.33.07-.74-.21-.39-1.01h0l.96-.78.46-.79,1.57-.55,1.72-2.38.07-.5.59-.43.72.88,1.21.22.78-.09,1.85,1.46,1.38,1.54,1.29.76,1.38.35,1.81-.47,2.28.21.85-.08,1.35-.77.84.04,1.31-.8,1.58-1.66.09-.33,1.12-.9,1.45-.17,1.62.62,1.85-.93,1.07-.14,1.39.59,2.1.2.2.15h0l-2.01,3.59-3.3,3.72-2.59,2.59-2.2,3.32-2.41,2.09-.72,1.47-.96,1.3h0l-.43-.95-2.6-1.62-.33-.02-1.2-.57-1.28-1.05-.94-1.78-3.93-2.22-2.67-.69-4.68-2.16Z"/>
    <path id="BR-AM" class="st2" d="M127.22,54.28l.52.57.54.25h.44s.82-.3.82-.3l.46.08.04.7.88.85.7.27.64-.15.99.08,1.41.69.36.48-.66,2.41-.51,1.09,1.98,2.71,1.2,3.45.14,1.64.63.81.04.33-1.17,1.06.26,1.15.48,1.14-.56,2.2-.41.7.21,3.61.64,1.57.88.61.42.65.82,3.14-.04.42-.83.96-1.33-.24-.1.83,3.63,3.2.38.03,1.42.95,1.07,1.2.75,1.48.38.05.97-.3,1.71.75-.32-1.53.54-1.66.18-1.25-.27-1.3.59-2.15.74-.91.93-.5,1.51-.51.4-.64,1.16-.04,2.05.67,1.35,1.48.67,1.82,1.32.17.91-.33,1.02-1.02,1.47-.4.3-.28v-.38s-.81-1.02-.81-1.02l-.17-.53.08-.48.83-1.91.05-.82,1.2-2.2,1.69-2.36-.02-.49,13.4.05h0l.29,3.52-.31,1.05.13,1.64.17.49,1.23.62.13.3-.25.5-.04,1.53,1.33,1.44.26.14.51-.13,1.33.89.4,1.33.03.67.22.33,3.36,2.73,3.32,1.84.46.65.98.79,1.36.49,1.72.95,1.64.47.99.11.96.59.06.44.92.97,1.96,1.04.8,1.57,1.35.57.62-.44,1-.25.14.35-.09.57,1.31,1.21-21.66,46.55-.57.95-1.05.82-.42.7-.02.82.59,1.69.28.41.78.42,1.14,1.13.46.91.11,1.42.41.41h0l-.85.87-.14.44-.04.55.25.61-.2.73-.87,1.32-.62.46-.3.62.07.62.48.99.33,1.41-1,3.06-.85,3.78-.88.53-34.67.23h0l.03-.51-.26-.28-1.01-.2-1.39.78-.39,1.26-.49.14-2.35-1.07-.49-2.09-.45-.14-.71.09-.33-.15-.91-2.37-1.84-.71-.96-.92-.58-1.38-.33-.36-1.56-.82-7.82.04-1,1.85-1.25.36.07.85-.19.16-1.8.38-.86,1.15-.04.49.65.51.12.33-.26.74-.59.83-1.49.88-.08,1.31.17,1.06-2.8-.33-1.54.28-.87.78-1.3-.07-.61-.4h-.33s-1.27.9-1.27.9l-.38.61.19,1.27-1.84,2.29-.49.06-.49-.38-.46-1.64-.28-.07-1.33.74-.94.88-.99.28-.56-.09-.78.36-.3.38-.09.52-.88.57h-.27s-1.67-1.67-1.67-1.67l-.52-.27-2.08.24-2.87-.19.12.93-.11.41-1.12,1.31-1.39.42-2.36,1.85h0l-20.66-8.79-19.16-10.27-8.8-2.28-17.14-4.1-13.01-5.42h0l-.05-.47.51-2.12.88-1.01,3.56-2.51,1.64-.17.34-.22.71-1.13.06-.75-1.26-3.25.28-.86.85-1.59.93-.96.67-.91.3-.71.22-1.26-.21-.96.49-1.48.22-1.67.53-.54,2.65-1.18,1.59-.89.83-.75.32-1.01.57-.27,1.02-.08,1.2-.67,2.56-1.98,1.75-.31,1.09.21,3.04-.88,1.09-.56,1.32-.26,2.41.28.94-1.15.46-1.05.79-.44,1.55.14.46.39.96-.17.8-.54,1.24.09.22.38v.85s1.15.93,1.15.93l2.05.06.42-.29.33-.57-.08-.28.85-3.56,4.85-26.93.84-2.12-.72-3.59.09-.19-.94-.76-1.07-1.99-.03-.36.47-1.01-.38-1.29-.27-.29-1.23-.43-2.2-1.7-1.41-1.65.14-8.34,2.82-.19,1.27-.85,2.54-.67,1.94,1.28.88.08.92-.31-.36-1.22.22-1.25-.99-1.52-.41-.39-.83-.43-1.09.38-2.02-.44-2.59.07-.04-7.17.7.03.96-.42,1.65-.43,2.06.63,13.79.04-.33-.48-.57-.1-.28-.87.69-1.4,1.04.29.44,1.1.63.96.48.25h.6s1.17-.43,1.17-.43l1.41-1.51.23-.61.91-.9,1.85-1.01.93.33.85,1.87,1.17,1.44.54.94.48,1.29.17,1.12-.36,2.63.14,1.28,2.32-.54,6.02,5.12.57.2,1.81.15,1.67-.72,1.23-1.23,1.53-.84,1.59-.08.41.21.56.78v.7s-.82,1.23-.82,1.23l.27.71.42.2.96-.52.41-.66.17-.93.72-.84.34-.17.72.13.4-.13.3-.48.33-1.67.37-.27,1.09-.26,2.12-1.28.7.4.67-.21,1.16-.75.74-1.17,1.53-.88,1.47.4,1.71-1.2.4-.59.32-1.93-.02-.93.56-.67.75-.3h1.26s.97-.3.97-.3l1.49-1.16.7-.27,1.65-.22.22-.9Z"/>
    <path id="BR-AP" class="st2" d="M257.03,92.26l-.68-.04-.56.25-.94.09-2.02-.49-1.05-.75-.31-1.09-1.35-1.01-.08-.94.15-.5-.22-1.14-.24-.34-.69-.14-.3-.68.06-1.76-2.12-2.38-.57.26-.59-.14-1.09-2.52.09-1.14-.43-1.31-.45-.41-.49-1.09-.14-1.53.31-2.28-.12-.24-1.86-.53-1.46-1.64-.55-2.05.14-.52.49-.17-.36-.85-.49.02-2.06-1.93-.68.1-.28.3-.96.1-.61-.2-.58-.71-.83-.61-.86-.09-.36-.93-.49-.58-1.4-.76-.93-.36-2.46-.27-.78.21h-.85s-.22-.41-.22-.41l-.17-1.04.18-3.29.45-.94-.27-1.67-.45-.41h0l.25-.15.72.22v.59s-.22.13-.22.13l.25.7,1.07-.04.59.17.25.65.61.51,1.63.57,2.38.54,2-1.29.25-.55,1.25-.85.6-.21.5.68,1.96.68.78-.09,1.25-.73.09-.3.23.02,1.06.94-.14.63,1.72-.12.37.36.69.12h.45s.66-.36.66-.36l1.21-1.09,1.29-.8,1.27-1.67.27-.72-.14-.39,2.27-4.71.08-1.32.8-.94.53-.14,2.61-4.2.17-.83.61-.87,1.3-1.12.46-1.2,1.53-.83.34-.67.75-.42.41,1.06.64.99-1.21-3.48-.05-.93.13-.24,2.44,1.75.83.88.66.88.38.86.02,1.14.32.22.23-.35.28-.07.15.29.15,5.72.48,2.8,1.96,4.38,1.93,6.48,2.41,3.62.73.25,2.37-.06,2.01.68.93.62.56,1.92-.12,2.41-.93.7-1.25.31-.28.24,1.3-.11.75-.3.2.17.09.43-.12.53-3.64,2.94-.85,1.52-1.56,1.02-1.41,2.7-2.11,2.54-.51.33-.68-.07-1.05.38-1.51,2.16h0l-.97.05-.54.65h0l-1.07,1.22-.7,1.61-.81,1.35-.61.47-2.18,2.5-.26,1.74.12,1.3-1.41,1.31-.71.09h0ZM273.96,58.21l-.33-.24-.8-1.35.05-.64.17-.3,1.2-.33.31.28.6,1.64-.72.8s-.49.12-.49.12ZM275.76,70.97l-.29-.18-.06-.51.8-.8.64-.11.91.17.33-.08.32-.46.04.43-.7,1.04-.72.36-1.27.14ZM278.26,68.89l-.57-.17v-.41l.52-.75.91-.07.13.25-.07.37-.92.78ZM273.05,55.55l-.55-.36.19-.6.64-.12.62.23v.53s-.9.33-.9.33Z"/>
    <path id="BR-BA" class="st2" d="M389.28,284.73l-.26-.6.49-.98v-.38s-.39-.75-.39-.75l-2.99-2.21-.11-.37.16-1.09-.41-.89-.47.17-.14.33-.25.13-.16-.18.38-3.19.59-2.39.59-.64,1.79.17.74-.51v-.3l-.41-.74.12-1.92,3.59-3.06,1.07-2.23-.3-.85-.57-.74-.64-.04-.53-.28-2.05-1.79h-1.54s-1.59-.42-1.59-.42l-1.64-.78-1.98-.41-1.43-.1-.96.72-1.07.36-1.89-.33-.41.15-.32-2.87-4.72-4.49-.28-.13-3.18.89-1.11-.9-.37.15-.67-.16-1.84-.88-1.57-1.17-.71.13-3.15-2.63-.8-.39-1.98-.54-1.28.18-1.36.65-.59.81-.46.13-3.86-1.07-.44-.36-.19-1.09.1-.64.93-1.99-.62-.33-1.65-.38-1.58-.03-.87-.36-1.3-.06-2.78,1.14-3.09,2.2-.46.8-2.44,1.35-1.46.29-.69.85-1.31,1.12-1.04.38-.72-.11-1.34,1.87-.75.56-1.54-.28-.52.09-.5.72-.97.67-.29-.17,1.04-2.49-.37-1.75h0l1.07-1.43.18-.56-.17-.92-.49-1.25.07-.49.51-1.03-.04-.33-2.33-1.9-1.22-2.51-.45-2.55.04-1.12.87-2.78,1.15-.75.17-.28.04-.68-1.18-.61-.08-.24.35-1.83,1.04-.77v-.27s-1.99-1.78-1.99-1.78h0l-.03-.67.99-1.72-.03-.78-.12-.3-1.06-.36-.68-.47-.25-.91.04-2.12.14-.62,1.41-1.21.83-.3.7-.52-.21-.46-.42-.38-.67-.21-.75.13-.25-.24-.07-.36.3-.7,1.48-.59.41-.33-.03-.55-1.36-.71-2.59-.49-1.35-1.42-.17-.67.36-.84.73-.53,1.1-2.52.65-.44.73-.2.25-.28-.93-1.3.14-.27,2.33-1.9,2.77-1.46.41-.34.16-.71.5-.47h1.69s1.04.96,1.04.96l.48.75.38,1.6,1.28,1.8,3.03,1.35,1.3-.38,1.53.13.24-.15.54-1.05.83-.27.49-.63.85-.64,1.6-.54.96.12,1.07.38.98-.3,2.15-1.75,2.14-3.66.52-.62.17-.67.22-1.85-.09-.84-1.62-3.21.04-.67,2.35-1.2h1.41s1.09.32,1.09.32l.3.67.23.13,1.54-.31,1.01-.39.96.28,1.24.72-.09.47.14.21.59.2,2.17-.08,1.07-.46,1.23-.07.59-.88,1.09-.97,1.98-.25.56-.26.59-.71h1.57s.45.46.45.46l.22.04,1.35-1.31-.07-1.74,1.44-.28.57.13.76-.48,1.09-1.67.33-.83h0l.64.29.84-.2,1.59.21,2.04,1.01.32.37-.04,1.98.52,1.41,1.6.66.2,1.45-.67,1.22,1.33.45.7-.16.59-.67,2.08-.64.56-2.59.36-.63.54-.12.57.38.46.04,1.73-.74.8-.9.12-.43-.18-.99.21-.18,1.62-.33.56-1.49,1.2-.32,1.83-1.06.43-.07,1.08.41.6,1.04.99.59,1.71.57,2.17.29,1.14.83.39,1.2.28.2.31-.11.21-1.27.31-.32h.72s.33.22.33.22v.46s-.43.64-.43.64l.33.6.36.27,1.52.62v.68s.9,2.21.9,2.21h0l.39,1.01.74.21.33-.07,1.04.57.14.52h0l-.49.84.15,1.55.93,1.81,1.44,1.41.54.83-.06,2.26-.48,1.17-.07.64.55,1.99-.22.42-.5.4-1.85.72-.82-.54h-1.24s-.23.21-.23.21l-.43,1.14v.56s.7,1.16.7,1.16l.8.48.38,1.08,1.04,1.09.11.28-.09,1.03-.25.28.09.3.43.38,1.4.67.35.51.39.25,1.12.46,2.09-.64h.46s.26.28.26.28l-2.96,6.4-2.78,3.76-.75,1.69-3.64,4.16-1.78.91h-.63s.22-1.04.22-1.04l.27-.11.1-.8-.33-1.4-1.35-.18-.31-.94-.49-.54-.27.43-.33,1.69-.36.63-.4.28-.41-.21-.36-1.26.08-.23.22-.09-.02-.28-.63.93.67,1.22.33.17.27-.11.83.19-.33,1.31-.88.83-.18,1.32-.91.7-.25.49-.14.61.13.62-.98-.28-.15.28-.26,1.83.26-.52.54.15.17.39-.17.3.04.45.22.22.24.72-.75,1.82.41,2.49-.4.36-.41-.16-.1.82.43.33.88-1.25-.34-1.6.59-.44.18.39-.04,1.28-.7,1.89-.54,3.93-.37,1.31.14,1.79.57,2.07.14,3.29.63,4.64.72,2.48-1.6,4.83-.98,4.82-.34.73-.12,2.07-.77,2.7-.07,1.69.28,3.2.64,1.24-1.62,2.16-1.31.49-.68.46-1.97,2.82-.41,1.48h0l-5.86-3.72-.22-.38h0ZM405.43,228.21l-.17-.87.54-.3.77-.75.12-.46-.27-.53.55.1.59.76-.04.38-2.09,1.67h0ZM403.59,233.17l-.46-.02v-.49s.2-.26.2-.26l-.58-.16-.3-.29.09-.78,1.35-.11.12.14.08.82-.5,1.14h0Z"/>
    <path id="BR-CE" class="st2" d="M422.82,133.67l-3.54,1.15-1.89,1.46-2.39,4.85-.61.81-.63.41-.47,1.21.11.54-1.01,1.77-1.06,1.09-.41.8-.75.19-.57-.37-.37.05-.61.64-1.02,1.63-.25,1.43.46.12.48-.28h0l-.06.39-.61.83-.75,2.17.38.95-.48.95-.79.46-.12.28-.09.67.17.3.42.21.25.52v1.2s.88.64.88.64l.5.06.25.86-1.17,2.53-.86.81.12.18h0l-1.15.36-.78.6-1.12,1.66-1.2.04-.46-1.19-.57-.41-.99-.35-.73-.78-.33-.72-1.33-.6-2.07-1.38-2.23-.3-.93.07-1.55.58-1.18.14-.64-.17-3.57-.14h0l.04-.96-.49-.49-.06-.7.83-2.25,1.09-1.63v-.5s-.55-.84-.55-.84l-1.85-.34-.95-.47-.73-1.93-.76-3.77-.55-1.86.17-.33-.68-5.91-.08-.28-.67-.5.58-.42.43-1.14-.43-2.17-.72-1.46.35-1.16-.57-2.8.54-.99v-.55s-.97-1.15-.97-1.15l-.32-1.25-2.28-4.65-1.3-3.42-.21-.93.13-1.06,1.14-1.43.79-1.34.08-.58h0l.14-.1-.03-.45-.29-.48.47-.59,4.88-.16,2.09-.31,1.5-.48,5.36.57,1.54.81,1.41,1.09,2.99,1.58,1.06.38,3.49,2.17.88.14,1.61,1.66,2.17,1.53,1.86.52,1.77,2.11.88.44,2.14,2.76,3.01,2.23,1.06,1.45.75.72,1.09.59.83.02,1.72.67.57.49.36.99Z"/>
    <path id="BR-DF" class="st2" d="M309.01,261.93h-10.64s-.38-2.38-.38-2.38l.67-1.33.28-2.7h8.66s1.33,1.44,1.33,1.44l.04,1.6-.43.86-.15,1.77.63.73Z"/>
    <path id="BR-ES" class="st2" d="M370.54,318.09l-.21-.1.32-1.7.41-.94-.43-2.26.12-.3,1.25-1.49,3.73.02.4-.23.7-2.35.8-.92.64-1.66.17-1.25.19-.32.9-.62,1.24-1.51.39-2.15-.21-1.76-.92-2.04-.8-.92-.38-.07-.33.21-.55-.2-.36-.51.31-.4,1.07-.07.58.25.7.02.69-.17.23-.3-.12-1.25-.95-.25-.15-.3.22-1.12.02-1.39-.38-.48-.96-.49-.22-.51.85-1.4,1.57-.95h.22s.76.52.76.52l.82.08v-.59s-1.2-1.64-1.2-1.64l.97.09,1.58-.21.61-.44.78-.23,1.14-.06,1.84.59.66.4h0l.22.38,5.87,3.72h0l-.67,2.43-.22,2.07.09,2.6.52,4.46-.22,1.79-1.08,2.3-1.99,1.01-.4.43-1.21,2.41-.71,2.75-.56,1.07-.6-.49-.64-.09-.21.93.98.38-1.41,3.07-2.5,2.78-.17-.2-1.35.48-.58.89-.04,1.01-.3.91-1.15,1.46-.21.82h0l-1.17-.77-2.17.27-3.14-.73-1.81-.82-.49-3.41-1.4-.55Z"/>
    <path id="BR-GO" class="st2" d="M309.01,261.93l-.63-.73.15-1.77.43-.86-.04-1.6-1.33-1.43h-8.66s-.28,2.7-.28,2.7l-.67,1.33.38,2.36h10.64s-.38,1.12-.38,1.12l.22,1.14-.49,1.15-.75.91-.3,1.07.62.88.62.25,1.03.75,1.2,3.3v.43l-1.68,1.96-2.35,2.18-.31,1.55.79.8.65-.34,1.14.41.34.44.13.72-.12.51-.53.65-.37,1.37.86,2.51-2.24,1.49-.84.14-.62.65-.35.81-3.54,1.99-.51-.56-3.15-1.35-.4.35-.42.07h-1.27s-1.07-.2-1.07-.2l-2.8.12-1.46-.64-2.99,1.91-2.11,2.12h-.24l-.95-1.03-1.1-.22-2.31,1.19-2.69-.45-1.8.7-1.62.39-1.02,1.52-.88,1.78.04.72-.61.94-.59.2-.61-.12-.33.1-.68.54-1.19,1.52-.41,1.38.41.44v.25s-.27.17-.27.17l-.62-.33h0l-.17-.33-1.93-1.62-2.28-.44-1.17-1.12-1.38-.31-1.08-.03-2.43-.97-.49-.62-2.22-1.13-.49-.44-1.04-.51-.83-.12-1.96-1.22-2.01.12-2.75-.51-.09-.24.19-.61.41-.85.95-1.28-.06-.3-1.63-.65-.83.49-.48-.14-.2-.3-.17-.8.19-1.87-.14-1.28h0l-.69-1.59-.13-2.49-1.02-1.59-.12-.51.29-2.47,1.85-2.79.28-2.11.51-.56,1.46-.61,1.39-1.28.91-1.46.24-1.41.36-.73.93-.75.59-1.04.06-1.12,1.27-.7,1.01-1.9,1.92-.09,1.97-.62.23-.2,1.43-3.04.51-.7.46-2.97.28-.54,1.39-1.41,1.2-.73.78-.19.89.49.88-.53,1.01-1.04.61-2.12.85-2.08v-.58s-.36-.83-.36-.83l.42-1.99,1.16-2.24-.09-3.75.88-.57.75-1.91,1.45-2.3.28-.78-.12-1.97.25-.65.7-.62.2-.82-.06-.46h0l.25-.33.14-1.36.48-.89,1.31-1.51.41-.22-.02,1.24-.88,1.36-.38,1.7,1.74.29,1.59.75,2.85.29,2.24,1.24,2.95,1.04.46-.17,1.18-4.3,1.07-1.73.85-.7.83.95.75,1.36.8,2.69.44,2.25.83.04.54-.54.22-.72.41-.39,2,.25,3.28-.38.16.54-.41,1.13,2.27,1.07,2.43.49.5-.06.37-2.39.4.02,1.09,1.9.33.17,1.29-.65,1.83-1.51,3.28-.72h1.12l1.85-.8,1.26-.97,3.88-1.03h0l1.97,1.78v.28s-1.02.77-1.02.77l-.35,1.83.07.24,1.18.61-.04.68-.17.28-1.15.75-.86,2.78-.04,1.12.45,2.55,1.23,2.51,2.33,1.9.04.34-.52,1.03-.07.49.49,1.25.17.93-.18.56-1.07,1.43h0l-.72.73-2.34-.25-.65-1.28-1.75-1.07-.85,1.08.42,2.73-.41.39-.29.09-2.01-.83-.85.17-.27.2-.52,2.3.52.07.36.84-.41.68-.53.51.03,1.38.3.44.38.14.5,3.09-.38.38-2.43.65-1.66,1.09-.92.09Z"/>
    <path id="BR-MA" class="st2" d="M339.34,113.43l-.03.24-1.48,1.56-.31.12-.03,1.04,1.43-1.23.49-.88,1.54-1.14.64-.83.75-4.59.83-.51.8-.09,1.21-.67.47-.09.33.09.06,1.18-.14.33-1.03,1.35-2.33,1.27-.02.52.53.09.33-.59.83-.22.16.6-.43.37.18.22,3.05-3.6.62.24,1.87-.67,2.93.31-.33-1.75.44-.17,1.75.06,1.29.28,1.91.76.75.08,1.56,1,1.01.02.91.94,1.37.96,1.81.42.84-.14.41.55.25.04,1.15-.07,1.78.48.19-.65-.49-.34,1.21-.28.41.08-.07.3h0l-.33,1.04.17.52.46.39-.28,1.11-1.3,1.64-2.99,2.88-2.41.33-.58-.12-2.12,2.46.03,1.3-.64,1.33-1.37,1.34-.59,1.43-.46.12-.56.76.26,1.39.89.6.28.93-.2,1.06-.83,2.08,1.14,2.04.4,2.16-.08,1.76-.15.4-2.97,3.2-.12,1.8.09,1.53.37,1.67,1.29,1.48,1.17.66.12.36.09.61-.28,1.59-.21.32-.09.88-.36,1.06-.88.95-1.66.21-.47-.2-.6.03-1.76.62-1.1.08-1.81-1.32-.73-.15-1.06.14-.73.43-.81.19-.17-.22-.61.17-.36.16-1.38,1.38v.33s-.45.63-.45.63l-1.46,1.45-1.7.66-2.08,1.85-.96.38-.76.03-1.23,1.11-.78.26-1.89.23-1.97.55-1.54,1.41-.71,2.15-.28,2.15-.46,1.68-1.05,1.99-.22.16-.25.59-.09,1.1-.87,1.8-1.23,1.01-.53,1.45.51,1.41.34,2.3,1.25,2.22-.03.38-.55,1.01-.09,4.61-.83,1.78-.19.77-.04,1.39h0l-.93-.48-.44-.59-.59-.33-.72-.21-1.29.14-.51-.13-.98-1.45-.72-2.07-1.54-1.17-.1-1.2,1.19-1.31-.06-.38-2.81-1.41-.45-.76-.04-1.2-.54-1.15-.68-.5-1.51-.2-.14-.3.19-.51,1.91-1.84-.27-.95.53-1.94.5-1.04.41-.4.97-.39,2.46-.25-.28-.98.46-2.35-.06-1.28-1.3-.88-3.09.68-1.56.97-1.64-2.19-.66-.62-2.17-3.01-.64.05-.61-1.04.44-.86-.08-.64-.18-.25-.99-.17-.3.2-1.4-.96.13-.51,1.28-.48,1.27-1.48.18-1.15-.2-.72.22-1.71,1.28-4.46v-.31s-.49-.83-.49-.83l-.17-.78.15-2.7-.46-1.09-.34-2.53-.61-.75-2.46-1.04h-.88s-.2-.25-.2-.25l-.06-.75-.43-.5-1.26-.21-.7.38-1.01-.07-2.01-1.09-.62-.04-1.42.38-1.9,1.34-.38.46h0l-.36-.06,10.66-8.57,1.7.17.85-.67,1.12-1.57.31-.83,1.12-.85.45-2.09.81-.33,1.77-1.68.34-.88.21-1.38,1.16-3.4,1.42-1.12,1.07-1.28.6-1.05.33-.93-.13-1.32.57-.59-.75-1.14,2.67-2.24-.09-1.19.36-1.72,1.26-1.14.26-.51.65-2.19.06-1.17-.31-.38-.72.12-.2-.36.04-.45.83-.11.41-.54.51-3.18-.12-1,.34-.75.56-.33h.46l.17-.17-.04-.39.25-.54.42-.38.97.71.33,1.33.86.09.56-.99.44,2.12.72.03.21-.36.05-.68.62-.03,1.22.38.36.5-1.04,1.23.49.51v.4s.89-1.48.89-1.48l.36-1.12h.33l.29.74v.42l-.63.67-.2.72.06,1.96.19.24.34.09.42-.1.7-.67-.34-.72.1-.43.96-1.04.76-.18,1.54.43,1.09-.8.04.67-.26.15-.82,1.11.43.42.07-.27.91-.43.42.57-.1.88,1.18,1.27.62-.32,1.14.49.56,1.74-.08.69-1.59,1.98-.28.64.07.48.43-.75,1.27-1.22.6-.02.63.59.38,1.37-.2.89-.7.14-.75.66-.84,1.08.05.56-.84,1.7-.45,2.55.15.25.63.17h0ZM339.71,113.76l-.04-.57.38-1.11-.3-.78.09-.48.66-.9.4-.14.04,1.7-.16.97-.58.43-.49.86ZM335.15,95.09l-.32-.33-.06-.43.58-.81.61-.02.49.3.07.25-.14.26-1.24.79ZM337.69,98.12l-.21-.22.04-.38.77-.64.35.05.36.62-.1.44-.29-.12-.92.26ZM327.43,94.64l-.15-.04.69-2.59.22.07.02.17-.3,2.22-.48.18Z"/>
    <path id="BR-MG" class="st2" d="M389.28,284.73l-.66-.4-1.84-.59-1.14.06-.78.23-.61.44-1.58.21-.97-.09,1.21,1.64v.59s-.83-.08-.83-.08l-.76-.54h-.22s-1.57.96-1.57.96l-.85,1.4.22.51.96.49.38.48-.02,1.39-.22,1.12.15.3.95.25.12,1.25-.23.3-.69.17-.7-.02-.58-.25-1.07.07-.31.4.36.51.55.2.33-.21.38.07.8.92.92,2.04.21,1.76-.39,2.15-1.24,1.51-.9.62-.19.32-.17,1.25-.64,1.66-.8.92-.7,2.35-.4.23-3.73-.02-1.25,1.49-.12.3.43,2.26-.41.94-.32,1.7.21.1h0l-1.83,1.7-.9.2-.41.36.54.51-1.71,4.38-1.38,2.69-.07.54,1.04.09.21.44-.15.38-1.83.71-6.89,3.28-.99.14v-.33s-.34-.12-.34-.12l-1.83-.2-.41.04-1.17.68-.91.12-2.32.06-.26-.23-.37.06-2.97,1.29-.76.56-1.24.56-.36-.2-1.88.12-2.11.97-1.75.54-.49.36h0l-.91.53-1.59.16-1.4.74-.89.9-1.3.49-1.72.18-1.7-.06v-.36s.25-.36.25-.36l-.07-.25-.86.24-.13,1.67.17.17-.04.61-.54.71-.94.23-.41-.31-2.62.72-.14-.38-1.46.17-.81-.18-1.47-2.4.88-.51-.38-1.24-1.3-.6-1.3-.89-.51-1.17.38-1.13.14-2.5-.19-2.13,1.35-1.97.51-1.58.04-.92-.17-.27-2.68-.96-.72.04-.2.26-.57.22-1.17.04.02-.62-.6-1.44-.94-1.3-.27-1.6-.22-.45-.57-.54.14-1.41,1.1-1.47.04-.41-.29-1.12-1.36-.88-.42-.44.21-1.72.41-.73-.14-.75-2.37-2.43-.94.21-.62.46-1.2-.57-1.72.08-.22.44.14.33-.32.72-2.01.49-.8-.31-1.09-1.05-.73.91-5.93.49-.33.35-.35.86.2,1.84-.3.32-.86-.38v-2.01s-.19-.7-.19-.7l-.26-.28-.41-.04-.19.14-.3.82-.49.68-.39.23h-.45s-.88-1.54-.88-1.54l-.24-1.03.1-.66-1.22-.57-1.58-1.03-1.44.43-1.17-.16-1.21.25-3.11-.7-1.85-.06-1.25-1.12-.54-.1-1.09.44-1.04,1.22-1.39.27-1.56.8-.88.82h0l.22-1.9-.43-2.33.72-3.03.42-.18h0l.62.33.26-.17v-.25s-.4-.44-.4-.44l.41-1.38,1.19-1.52.68-.54.33-.1.61.12.59-.2.61-.94-.04-.72.88-1.78,1.02-1.52,1.62-.39,1.8-.7,2.69.45,2.31-1.19,1.1.22.95,1.03h.24l2.11-2.12,2.99-1.91,1.46.64,2.8-.12,1.07.2h1.27s.42-.07.42-.07l.4-.35,3.15,1.35.51.56,3.54-1.99.35-.81.62-.65.84-.14,2.24-1.49-.86-2.51.37-1.37.53-.65.12-.51-.13-.72-.34-.44-1.14-.41-.65.34-.79-.8.31-1.55,2.35-2.18,1.68-1.96v-.43l-1.2-3.3-1.03-.75-.62-.25-.62-.88.3-1.07.75-.91.49-1.15-.22-1.14.38-1.1.92-.09,1.66-1.09,2.43-.65.38-.38-.5-3.09-.38-.14-.3-.44-.03-1.38.53-.51.41-.68-.36-.84-.52-.07.52-2.3.27-.2.85-.17,2.01.83.29-.09.41-.39-.42-2.73.85-1.08,1.75,1.07.65,1.28,2.34.25.72-.73h0l.37,1.75-1.04,2.49.29.17.97-.66.51-.72.52-.09,1.54.28.75-.56,1.34-1.86.72.11,1.04-.38,1.31-1.12.69-.85,1.46-.3,2.44-1.35.46-.8,3.09-2.2,2.77-1.14,1.3.07.87.36,1.58.02,1.65.38.62.33-.93,1.99-.11.64.19,1.08.44.36,3.86,1.06.46-.12.59-.81,1.36-.64,1.28-.19,1.98.54.8.39,3.15,2.64.71-.13,1.57,1.17,1.83.88.67.16.37-.15,1.11.9,3.18-.89.28.13,4.72,4.49.32,2.87.41-.15,1.89.33,1.07-.36.96-.72,1.44.11,1.98.41,1.64.78,1.59.44,1.54-.02,2.05,1.79.53.28.64.05.57.74.3.85-1.07,2.23-3.59,3.06-.11,1.92.41.74v.3l-.74.51-1.8-.17-.59.64-.59,2.39-.38,3.19.16.18.25-.14.14-.33.46-.17.42.89-.16,1.09.11.37,3,2.22.38.75v.38s-.49.98-.49.98l.25.6Z"/>
    <path id="BR-MS" class="st2" d="M267.16,309.71l-.29,1.78-.2.29-1.09.57-.96.03-.34.16-.88.75-1.44,1.94-.53.47-.73.22-.45,1.22-.12,2.12-1.88,2.64-.7.38-.17.28.22,1.4-.06.69-.88,1.7-1.45,1.64.25.62-.2.88-1.04.75-.29.88-1.25,1.22-.91,1.77-1.41,1.35-5.48,3.28-.91.83-.54,1.12-.61.78h0l-3.92,1.64-.8.59-.67,1.69v.83s-1.04,2.58-1.04,2.58l-.49.49-1.2.73-.8.23-.24.25-1.14,5.74-.26.59-1.72,1.13h0l-1.85-1.69-2.47-1.37-2.89,1.43-.49.54-1.2.36-1.87.31-1.71-.33-.73-.47-.34-3.09-.23-.51-.65-.69-.17-1.79.37-.97-.46-.57-.07-.32v-2.08l-.64-1.43-.43-1.99-.04-.52.43-.99v-1.17s-1.12-.79-1.12-.79l-.28-.58-.12-1.57-1.2-1.32-1.57-.19-1.09.22-1.33-.21-1.78-1.42-.41-1.08-1.12.24-1.57,1.99-.72-.43-1.25.59-.78.12-1.26-.5-1.85-.36-2.51.17-2.65-.51-.35-.66-1.44-.09-.64.38-1.81-.64.66-5.27-.31-1.72.43-1.03.71-1.06.43-4.37-.48-1.69-.04-1.25-.55-.7-.31-.07-.36.47-.46-2.36-.57-1.35-.88-1.46-.25-1.33,2.92-1.67.55-.64-3.04-2.8,3.9-8.27.81-.04-.2-1.54-.54-.09,2.34-7.48.48-.84-2.24-4.24.02-1.38h0l.51.14.74.8,1.56,1.1,4.07-1.43,1.49-1.45,1.46-2.14.07-.85,1.01-1.05,1.88.02,1.13-.16.56.25,1.2-.37.98-.91,1.46-.36.92.14.55.83,2.02.91,1.9.34.47.25.2.62.57.74,2.2.84.91.8.9.41,3.28-.46.91-.58.36-.62,1.04-.44,1.77.05,1.15.75.22.99.17.18.72.03,1.54-.64.73.04,4.07-4.35.97-.09-.89,4.79-1.3.51-1.2,2.05-.14.33.11.38.94.08,1.26.92,3.35.2.41-.41,1.93-.06.63.06.85.41,1.12-.22h0l.14,1.28-.19,1.87.17.8.2.3.48.14.83-.49,1.63.65.06.3-.95,1.28-.41.85-.19.61.09.24,2.75.51,2.01-.12,1.96,1.22.83.12,1.04.51.49.44,2.22,1.13.49.62,2.43.97,1.08.03,1.38.31,1.17,1.12,2.28.44,1.93,1.62.17.33h0l-.42.18-.72,3.03.43,2.33-.22,1.9Z"/>
    <path id="BR-MT" class="st2" d="M157.03,234.53l1.07-1.04,2.98-1.86.38-1.78,1.04-2.74.67-.78,1.19-.38.31-.3.42-.61.38-1.63,1.2-1.46.41-1.62.05-1.24-.42-1.08.03-1.49-1.11-2.42-.65.02-.42-.37-.31-2.35.1-.96.99-.78,1.01-1.27.12-.54-1.02-2.6-.78-.31-.8-.08-2.54.07-.88-.8.17-.41-12.43-.04.65-6.52-1.09-1.99-.2-1.28.02-.58.72-2.55-.28-1.4.68-1.21-.6-1.64-.11-1.01-.19-.44-.57-.34-.04-.25.93-3.62.55-1.03-.43-.9-1.01-.7h0l34.67-.23.88-.53.85-3.78,1-3.06-.33-1.41-.48-.99-.07-.62.3-.62.62-.46.87-1.32.2-.73-.25-.61.04-.55.14-.44.85-.87h0l.85.78,1.78,2.94.29,1.28.99,2.87.96,1.4.56,1.17-.17,1.77.35,1.74.53,1.59,1.11.8,2.17,1.99,2.45,1.23.17.68-.03.8.17.36.69.29.59-.12,1.18.33.39.52.14.78.25.23.99-.33,2.67,1.08,24.66,1.75,45.63,2.52h0l-.47.74-.41,1.37-.8.91-.32,2.28-.31.62-.27.2-1.41,3.83-.39,2.15-.03,2.14-1.36,4.34.04.62,1.01.97-.12.63-.59.64-.04.36.8,1.63-.34,2.4v1.14s.38.42.38.42l.32,2.21-.54,2,.71,2.42.7.37h.58s.06.47.06.47l-.2.82-.7.62-.25.65.12,1.97-.28.78-1.45,2.3-.75,1.91-.88.57.09,3.75-1.16,2.24-.42,1.99.35.83v.58s-.84,2.08-.84,2.08l-.61,2.12-1.01,1.04-.88.53-.89-.49-.78.19-1.2.73-1.39,1.41-.28.54-.46,2.97-.51.7-1.43,3.04-.23.2-1.97.62-1.92.09-1.01,1.9-1.27.7-.06,1.12-.59,1.04-.93.75-.36.73-.24,1.41-.91,1.46-1.39,1.28-1.46.61-.51.56-.28,2.11-1.85,2.79-.29,2.47.12.51,1.02,1.59.13,2.49.69,1.59h0l-1.12.22-.85-.41-.63-.06-1.93.06-.41.41-3.35-.2-1.26-.92-.94-.08-.11-.38.14-.33,1.2-2.05,1.3-.51.89-4.79-.97.09-4.07,4.35-.73-.04-1.54.64-.72-.03-.17-.18-.22-.99-1.15-.75-1.77-.05-1.04.44-.36.62-.91.58-3.28.46-.9-.41-.91-.8-2.2-.84-.57-.74-.2-.62-.47-.25-1.9-.34-2.02-.91-.55-.83-.92-.14-1.46.36-.98.91-1.2.37-.56-.25-1.13.16-1.88-.02-1.01,1.05-.07.85-1.46,2.14-1.49,1.45-4.07,1.43-1.56-1.1-.74-.8-.51-.14h0l-.48-.49-.23-.58.39-.51-1.77-1.56-.93.46-.38-.04-.85-.49-.33-.51-1.46-1.02-1.37-.55-.22-.23-.22-.81-.17-2.12-.44-1.28-.14-2.65.64-1.19.83-.79.25-1.29-.04-1.37-.7.04-.29.43-.28.12-19.46-.78-.76-9.17-3.89-4.44,3.54-.04-.25-5.47-1.91-3.85-.36-1.43.19-.77.44-.4.47-.93-1.04-2.12-2.25-.75-.78-.65Z"/>
    <path id="BR-PA" class="st2" d="M275.91,190.47l-45.63-2.52-24.66-1.75-2.67-1.08-.99.33-.25-.22-.14-.79-.4-.52-1.18-.33-.59.12-.69-.28-.17-.36.03-.8-.17-.68-2.45-1.23-2.17-2-1.12-.8-.52-1.59-.35-1.73.17-1.77-.56-1.18-.96-1.4-.99-2.86-.28-1.28-1.78-2.94-.85-.78h0l-.41-.41-.11-1.42-.46-.91-1.15-1.13-.78-.42-.27-.41-.6-1.7.02-.82.42-.7,1.05-.82.57-.95,21.66-46.55-1.31-1.21.09-.57-.14-.35-1.01.25-.62.44-1.35-.57-.8-1.57-1.95-1.05-.92-.97-.06-.43-.96-.59-.99-.11-1.63-.47-1.72-.95-1.36-.49-.98-.79-.46-.65-3.32-1.84-3.36-2.73-.22-.32-.03-.67-.4-1.33-1.33-.89-.51.14-.26-.14-1.33-1.43.04-1.53.25-.5-.13-.3-1.22-.62-.17-.49-.13-1.64.31-1.05-.29-3.52h0l-1.15-12.3h0l.54.23.31.42v.35s.31.29.31.29l.67.2.99-.51.34-.59,1.96.17.59-.76-.39-1.31,1.3-.26,1.02-1.18,1.91.73,1.36.02.39-1.1,2.41-1.17,1.43.28.84-.08.36-.18.87-1.07.29-1.01,1.06-.8.62-.08.47.33,1.53-.82.3.08.27.72.53.33,1.47.35,1.17.18.41-.43,1.21-.28.57.2h.59s.62-.25.62-.25l1.62.22,3.38,1,.7-.1.72-.63-.02-1.65-1.5-1.81-.9-.46.36-1.22.95-1.05.2-.8.22-.12.51.14.6.55,1.7.8,8.42-1.69,1.14,1.22.74.04.32-.21h0l.45.41.27,1.67-.45.94-.18,3.29.17,1.04.22.39h.85s.78-.2.78-.2l2.46.27.93.36,1.4.76.49.58.36.93.86.09.83.61.58.71.61.2.96-.1.28-.3.68-.1,2.06,1.93.49-.02.36.85-.49.17-.14.52.55,2.05,1.46,1.64,1.86.53.12.24-.31,2.28.14,1.53.49,1.09.45.41.43,1.31-.09,1.14,1.09,2.52.59.14.57-.26,2.12,2.38-.06,1.76.3.68.69.14.24.34.22,1.14-.15.5.08.94,1.35,1.01.31,1.09,1.05.75,2.02.49.94-.09.56-.25.68.04h0l-.38.54.21,1.15-.12.38-.93.8-1.01.12-.36-.13-.61-.57-.48-.11-2.45,1.14-.27.39-1.16.52h-.46s-1.12.41-1.12.41l.03.42,4.68-.77.64.48.09.33v.48l-.45.36.22.26.46-.14.62-.72h.74s.38-.2.38-.2l.43.09.78-.3.83-.41,2.38-1.7,1.09-.25,1.33-.59,2.29-1.33.39-.72.49-.38,1.51-.73.48-.52-.18-.49.15-.3.82-.2.79.04.3.15.28,2.75-.38,1.87.24,1.17.59,1.16.95.98.22,1.19-.09.34-1.33,1.33-.34.09-.63-.38-1.32-.38-.91-.22-.67.1-1.54-.75-.19-.81-.64-.38-1.65,2.77-.44,1.72.49,2.15.35.46.67.45-.73-.83-.31-1.95.09-.38,1.86-3.06,1.67.85.08.33,1.83,1.78-.18,1.46-.54.4.29,1.69.38.82.81.54.54.11.38.36-.25-.46-.56-.17-.87-.75-.16-.49.25-3.04.59-.86,1.04.53.6.87-.07.57.87.62.18-.21-.72-.91-.67-1.52v-.32l1.64-1.68,1.17.07,1.4.46.25.41-.44.43.23.2.35.02.75-.12.96-.65,2.96-.7.56.14,1.26.77,2.3-.3.78-.3.74-.73.71-.43,1.26-.37.56.05.04.54-1.48,2.91-.17,1.09-.33.78-.6.75v.64s.41,1.03.41,1.03l-.23,1.79.64-.86v-1.01s1.12-2.17,1.12-2.17l.82-2.31.81-1.13.2-.2.55-.04.42-.25,1.32-.17.64-.98,1.09-1.22.99-1.64.38-.33.57.36.45-.33,1.17,1.7.86.43-.04-.54-.25-.54.45-.73,2.54-.37-.75-.23-2.54.33-.22-.15.21-1.76.37-.21.49.28.74.08.78-2.25-.49-1.01.02-.49.85-1.31,2.06-1.8.26-.06.8.83,2.12-1.51.33-.05.29.33.07.41-.23.49.78-.12.59-.42.26-.57.46-.14.2.11.54,1.01.96.87.14-.41-.08-.28-.7-.36-.1-.21-.09-.87.12-.3.32-.14,1.65.19.85.47.45.74,1.18.51,1.2-.57.38,1.55-.36.22-.02.43.67-.38.84-1.7.28.17-.17.96.3.32,1.82-.19.33.47.33,1.22-.43.69.62-.36.19.27,1.37.1,2.56-.9-.22,1.14-.54,1.33,1.07-.36.43-.45.46,1.17h0l-.56.33-.34.75.12,1-.51,3.18-.41.54-.83.11-.04.45.2.36.72-.12.31.38-.06,1.17-.65,2.19-.26.51-1.26,1.14-.36,1.72.09,1.19-2.67,2.24.75,1.14-.57.59.13,1.32-.33.93-.6,1.05-1.07,1.28-1.42,1.12-1.16,3.4-.21,1.38-.34.88-1.77,1.68-.81.33-.45,2.09-1.12.85-.31.83-1.12,1.57-.85.67-1.7-.17-10.66,8.57.36.06h0l1.66.59,1.35-.17.93.09.74,1.2.28.22.63.1.91.85-.03.46-.27.49-.52.27-.7.05-.21.2.07,1.02.73.97-.67,1.99-.46.35-1.06.33-.18.33.21.87-.14.97-.94.11-1.09.97-.62.92.11,1.09-.17.36-1.81.87-2.47.83-1.79,1.29-.14.25.31,1.59.04,1.93-.93,1.52-1.02,1.22-.11.41.12.64.43.7,1.21,1.26.54.23.11.22-.48,2.93-1.28,3.73-.78.59-1.23,2.35-.13.72-.68,1.12-.54.62-.76.12-.99.67-.75,1.39-.88,1.22-.85.79-.83,1.14-.82,3.23-1.16,2.65h0ZM291.24,96.05l-3.28,1.42-2.46.38-1.46-.22-.47.82-1.33.86-.52-.44-.44-1.11-.17.2.3.89-.25.59-.51.3-2.73-1.19-.58.52-3.04.91-2.32-.41-.59-.44-.17-1.34-.17-.3-.8-.74-.77-1.16-.15-1.29.38-1.99.45-.28,1.28.26.67-.54.06-.41-.94.31-.88-.09-.68-.51-.13-.76.25-3.68.53-.55.25.54,1.28.43.4-.04-.33-.3-.92-.16-.65-1.57.26-1.22.64-1.43.96-.96.7-.41.97-.36.96-.09,2.51.38,5.22,1.28,2.68-.33.08-.22.83-.45,1.57-.27,2.09.21,2.03.59,4.7.62.46.34-.04.89-.51.54-.49,1.09-.26,1.92-.62,2.39-.93.49-.25.5.17.86-1.43,1.87-1.01,2.54-.36.33h0ZM257.03,95.93l-.54-.37.8-1.63-.07-1.3.18-.15,1.69-.35.65-.62.11-.36-.14-1.7.62-1.87.91-1.08,1.66-1.07,2.08-.14.52,1.71-.8,1.59-.62,2.2-.8.49-.97,1.47-.57.52-3.58,2.4-1.14.26h0ZM277.67,79.33l-.75-.18-1.78.06-.57-.12-.21-.19-.28-.79v-.9s1.1-.3,1.1-.3l1.37.03,1.59-.93,3.49-.43.56.19.49.49-.13.74-1.85,1.01-1.29,1.8-.8.36-.94-.83ZM281.14,79.33l1.35-.87,1.43.02,1.2.45.38.72.04.45-.64.56-2.07.2-.85.23-1.64-.64-.14-.38.93-.73h0ZM268.84,82.51l-.36-.19-.44.03-1.12-.5.15-.84.46-.67,1.39-.29,1.71-.65.96.06.58.49.07.09-1.4,1.17-.78.25-1.22,1.05h0ZM275.66,75.49l-.59-.22-.12-1.2.11-.43.85-.95,1.78-.67.18.09.38.49.03.64-1.41,1.44-1.2.8ZM265.64,90.14l-.1-.3.14-.67.75-2.04,1.88-1.22.52-.2.5.1-.12,1.3-1.13.32-1.17,1.59-1.27,1.13ZM273.55,77.41l-.86-.22-.22-.35.64-.7.51-2.86.64-.89.21.09.05.23v1.8s.42,1.35.42,1.35l-.23.64-.75.29-.42.62h0ZM262.82,84.8l-.2-.14.09-.44.4-.26.86-1.24.55-1.12.53-.48,1.05-.39-.14,1.08-.29.72-1.25,1.2-1.6,1.06h0ZM272.87,79.7l-.43-.11-.61-.51-.7-1.19-.04-.28.17-.21.59-.42,1.34.61.21.31.17,1.51-.7.28h0ZM268.97,101.85l-.47-.08-.64-.38-.5.33-.54-.2-1.22-1.26v-.44h.93s2.22.95,2.22.95l.22,1.08ZM253.64,97.83l.03-.75-.14-.22.43-.72,1.71-.64.57.28.63.62-.21.25-.75.34-1.84.3-.43.53h0ZM262.84,92.98l-.13-.02v-.25s.4-.68.4-.68l1.3-1.17.3-.9.04-.94.17-.22.23.32v1.09l-.64,1.98-.45.47-1.22.33h0ZM267.41,85.81l1.2-2.14.64-.15.51.14.2.63-.42.51s-2.12,1.01-2.12,1.01ZM290.18,99.56l-.61-.25-.25-.77.75-1.25.78-.24.14.07v.54s-.55,1.62-.55,1.62l-.26.28h0ZM265.92,85.45l-.39-.14.23-1.48.96-1.31.17.03.93.64v.18s-1.13.46-1.13.46l-.78,1.62ZM267.53,89.09l.52.02-.29.33-.68.22-.08.81-.57.51-1.22.61-.12-.13.2-.6.34-.46,1.25-1.21.65-.11ZM251.19,96.49l-.4-.14-.05-.25.31-.29,2.58-1.16.39.51v.14s-1.02.53-1.02.53l-1.81.66ZM297.22,93.03l-.75-.14-.59-.57.63-.91h.97s.14.85.14.85l-.07.43-.33.33h0ZM270.23,79.33l-1.71.51h-.43s-.13-.14-.13-.14l.75-.75.75-.37.75.12.32.25.11.17-.11.15-.3.07h0ZM266.41,85.56l-.06-.55.18-.36,1.8-1.06-.65,1.45-.59.46-.68.07h0ZM267.96,88.84l-.33-.09-.05-.17.57-1.09h.86s-.09.99-.09.99l-.96.35ZM288.28,100.31l-.2-.17.65-1.16.49-.29.17.54.37.27-.19.38-.31.25-.46-.13-.52.31ZM268.96,83.41l-.64-.05v-.14s1.72-1.33,1.72-1.33l.03.7-.17.46-.18.25-.76.12h0ZM317.84,90.82l-.28-.38.14-.55.74-.66.18.11.17,1.27-.95.22Z"/>
    <path id="BR-PB" class="st2" d="M449.37,164.32l-1.81-1.49-.59-.19-1.92-.15-1.67.78-1.07.93-.33,1.3-1.38.75-1.46.33h-.83s0,.42,0,.42l-.58.38-1.58.21-2.81-.19-1.17.64-.4.46-1.32.07-.64.5-.39.55.28.53v.39s-.28.35-.28.35l-1.29,1.11-.97.12-1.2.61-1.16-.57-.69-.68-.25-1.62.17-.36-.13-.22-.83-.23-.32.21-1.09.18.03-.33,1.83-1.91.12-.31-.52-1.35-.03-.34.27-.57,2.17-.78.08-.22-.36-1.01-2.54-1.39-1.07.3-1.61.91-.67,1.09-1.07.63-.76.22-1.96,1.36-1.1,1.19-1.18.17-1.91.7-.56-.24.04-.49-.46-.9-.28-.06-.67.53-1.09.23-.72-.24-1.01-1.38-.29-.07h0l-.12-.18.86-.81,1.17-2.53-.25-.86-.5-.06-.9-.64v-1.2s-.24-.52-.24-.52l-.42-.21-.17-.3.09-.67.12-.28.79-.46.48-.95-.38-.95.75-2.17.61-.83.06-.39h0l.41-.33,1.4,1.19.65.3,2.09.44.84-.82,2.34-1.2.59-.51.07-.75.3-.69,2.3-.88,1.04-.09,2.36-.75.46.06.38.32v.86s-2.16,2.33-2.16,2.33l-.32.7-.28,1.26-.3.28-.62.18-.15.22-.06,1.25,2.56.38.23.17.22,1,.21.17,2.28-.91,1.28-.06,1.41.22.64.85-.38,1.12.6.54,1.7-.67.36-.54.4-.88-.34-.68-.12-1.03.35-.43.73.23-.38-1.11-.52-.57.22-1.07,1.32-.98,1-.04.3.28-.07.72.45.36,2.48.29.38.25,4.22-.28,1.57.22,1.78.8.75-.29,2.54.15.67-.17h0l.07,1.74,1.05,3.18.04.46-.13.68-.27.33-.02.64.42-.54.37-1.09v1.43s.43.73.43.73l-.2,3.75-.26.43h-.68Z"/>
    <path id="BR-PE" class="st2" d="M411.58,184.63l-.88-2.2v-.68s-1.54-.62-1.54-.62l-.36-.27-.33-.6.44-.64v-.45s-.34-.23-.34-.23h-.72s-.31.33-.31.33l-.21,1.26-.31.11-.28-.19-.39-1.2-1.14-.83-2.17-.29-1.71-.56-.98-.59-.6-1.04-1.08-.41-.43.08-1.83,1.06-1.2.32-.56,1.49-1.62.33-.21.18.18.99-.12.43-.8.9-1.73.75-.46-.04-.56-.38-.55.12-.36.63-.56,2.59-2.08.64-.59.67-.7.17-1.33-.45.67-1.22-.19-1.45-1.6-.66-.52-1.41.04-1.98-.32-.37-2.04-1-1.59-.21-.84.19-.65-.29h0l1.9-.92,1.43-1.24.39-.63,1.66-.96.7-.2,2.82-2.8.54-1.28.04-1.64-.21-.39-1.17-1.14.05-1.59-.43-.82-.04-.69.08-.33.38-.24,1.3-.12h0l3.57.14.64.17,1.18-.14,1.55-.58.93-.07,2.23.3,2.07,1.38,1.33.6.33.72.73.78.99.35.57.41.46,1.19,1.2-.04,1.12-1.66.78-.6,1.15-.36h0l.29.07,1.01,1.38.72.24,1.09-.23.67-.53.28.06.46.9-.04.49.56.24,1.91-.7,1.18-.17,1.1-1.19,1.96-1.36.76-.22,1.07-.63.67-1.09,1.61-.91,1.07-.3,2.54,1.39.36,1.01-.08.22-2.17.78-.27.57.03.34.52,1.35-.12.31-1.83,1.91-.03.33,1.09-.18.32-.21.83.23.13.22-.17.36.25,1.62.69.68,1.16.57,1.2-.61.97-.12,1.29-1.11.29-.35v-.39s-.29-.53-.29-.53l.39-.55.64-.5,1.32-.07.4-.46,1.17-.64,2.81.19,1.58-.21.58-.38v-.43h.83s1.46-.31,1.46-.31l1.38-.75.33-1.3,1.07-.93,1.67-.78,1.92.15.59.19,1.81,1.49h0l.64.17.4.88-.92,1.25-.08.4v.35s.51.27.51.27l.2.36.14.77-1.42,4.62-2.35,6.48h0l-.2-.15-2.1-.2-1.39-.59-1.07.14-1.85.93-1.62-.62-1.45.17-1.12.9-.09.33-1.58,1.66-1.31.8-.84-.04-1.35.77-.85.08-2.28-.21-1.81.47-1.38-.35-1.29-.76-1.38-1.54-1.85-1.46-.78.09-1.21-.22-.72-.88-.59.43-.07.5-1.72,2.38-1.57.55-.46.79-.96.78Z"/>
    <path id="BR-PI" class="st2" d="M373.49,111.97l.95.09.5-.17,1.62.37.72.62.23.43h0l-.08.58-.79,1.34-1.14,1.43-.13,1.06.21.93,1.3,3.42,2.28,4.65.32,1.25.99,1.15v.55s-.55.99-.55.99l.57,2.8-.35,1.16.72,1.46.43,2.17-.43,1.14-.58.42.67.5.08.28.68,5.91-.17.33.55,1.86.76,3.77.73,1.93.95.47,1.85.34.56.84v.5s-1.09,1.63-1.09,1.63l-.83,2.25.06.7.49.49-.04.96h0l-1.3.12-.38.24-.08.33.04.69.43.82-.05,1.59,1.17,1.14.21.39-.04,1.64-.54,1.28-2.82,2.8-.7.2-1.66.96-.39.63-1.43,1.24-1.9.92h0l-.33.84-1.09,1.67-.76.49-.57-.13-1.45.28.08,1.74-1.35,1.3-.23-.04-.45-.45h-1.57s-.59.7-.59.7l-.56.26-1.98.25-1.09.97-.59.88-1.23.07-1.07.46-2.17.08-.59-.2-.14-.2.09-.48-1.24-.71-.96-.28-1.01.4-1.54.31-.23-.13-.3-.67-1.09-.33h-1.41s-2.35,1.21-2.35,1.21l-.04.67,1.62,3.22.09.83-.21,1.86-.18.66-.52.62-2.14,3.66-2.15,1.75-.98.3-1.07-.38-.97-.12-1.59.54-.85.64-.49.63-.83.28-.54,1.05-.24.15-1.53-.13-1.3.38-3.03-1.34-1.28-1.8-.38-1.6-.48-.75-1.04-.97h-1.69s-2.13-.14-2.13-.14h0l.04-1.39.19-.77.83-1.78.09-4.61.55-1.01.02-.37-1.25-2.22-.34-2.31-.51-1.41.53-1.45,1.23-1.01.87-1.8.09-1.09.25-.6.22-.15,1.04-1.99.46-1.68.28-2.15.71-2.16,1.54-1.41,1.97-.55,1.89-.22.78-.27,1.23-1.11.76-.03.97-.38,2.07-1.86,1.7-.66,1.46-1.45.46-.63v-.33l1.38-1.39.36-.16.61-.17.17.22.81-.19.72-.43,1.06-.14.73.15,1.82,1.32,1.09-.07,1.77-.62.6-.03.47.2,1.65-.21.88-.95.36-1.06.09-.88.21-.32.28-1.59-.09-.62-.12-.36-1.17-.66-1.29-1.47-.37-1.67-.08-1.53.12-1.8,2.97-3.21.15-.4.07-1.76-.4-2.16-1.14-2.03.83-2.08.2-1.07-.28-.92-.89-.61-.25-1.39.56-.76.46-.12.59-1.43,1.37-1.34.64-1.33-.03-1.3,2.12-2.47.59.12,2.4-.33,2.99-2.88,1.3-1.64.28-1.11-.46-.38-.16-.52.33-1.04h0l.53.09,1.07.63.37.37-.09.22.8.24Z"/>
    <path id="BR-PR" class="st2" d="M294.54,381.87l-3.8-.02-.24.32-1.26.17-.55-.05-.08-.28-1.14.41-.98,1.04-2.43,1.54-1.04-.12-.89-.45-2.27-1.88-.75-.28h-.55s-2.06.52-2.06.52l-1.69.12-.59-.02-1.03-.55-.8.1-1.11.47-.43,1.07-.53.63-1.35.71-2.59-.3-1.45.83-.52.56-.5,1.15.62,2.17-.63.62h-.67s-.54.29-.54.29l-.12.36-.96-1.37-3.08.09-2.72-.31-1.14-.85-.12-.3-.75-.46-3.09-.26-3.83-1.22-1.7.41-1.95-.02-1.46-1.02-.23-.37-.77-.17h-.38s-.51.26-.51.26h-2.63s-.16-.89-.16-.89l-1.83-3.03v-1.88s-.7-2.09-.7-2.09l-2.48-1.72-.79.82-1.54-.08-.8.31-.78.65-1.06-.78-.59.04-.2-1.59.48-1.14.78-.92.88-1.58.04-.25-.36-.54v-.9s.67-2.64.67-2.64l.91-2.19-.18-1.67.93-1.72-.15-.74-.61-.64-.22-1.16.48-.77.57-.39h0l1.72-1.13.26-.59,1.14-5.74.24-.25.8-.23,1.2-.73.49-.49,1.05-2.58v-.83s.66-1.69.66-1.69l.8-.59,3.92-1.64h0l2.36-1.66,2.78.47,2.91-.08,2.37.21.88-.45.25-.43.53-.27.85.21,1.07.57,1.83.33,1.91.79.95.09.78-.39h1.87s.57.72.57.72l1.27.61,2.54.58.46.37.51.96,1.25.05.3-.25,1.2.11.48.39,3.85.09,2.15-.62.82,1.12,2.6,2.05.64,1.28v1.99s-.28.42-.28.42l-.12.59.28,1.33.94,1.09-.06,1.28-.26.41,1.08,2.17.88.83.49.2.36.49-.04.64.67,1.43.43.21.18.32-.18.76-.92,1.54.23,1.48.43.28.73.15,1.72-.09,2.48-.38.36.28,1.14-.14,1.15.09,1.17.91-.1.3-.64.47-.5,2.39.25.57.78.38.47-.62.8-2,.55-.12,1.55.42-.29,1.41.53,2.39,1.03.42.12.96h0l-.98.74-.44,1.07-.4-.09.2-1.41,1.04-.69-1.02.2-.64.36h-.63s-.25-.3-.25-.3l-.41-.12-.39.27-.2.67.38.58-.53.7-.22.07-1.8-.38-.57-.39-.33.09-.13.65.25.27,1.17.41,1.01-.18,1.54.43.2.35-.7.49-1.12,2.01-.9.56-1.75.41-.14.33,2.14-.14.11.86-.14.5Z"/>
    <path id="BR-RJ" class="st2" d="M346.42,346.28l-.05-.57.28-.2,2.31.16,1.88-.43-1.83-1.12-1.01-.36-2.04.49-.99,1.16-.75.23-.51-.04-.98-1.56h-.35l-.65.3-.7.77-2.28.58-.25.66-.14,1.38,1.59.09.78.73-.83.78-.68-.12-1.03.12h0l-.35-.19-1.18-1.25-.04-.3.79-2.54.79-.83,1.7-.73.36.11,2.01-.26,1.09-.51,1.2-1.56-.54-1.19h-1.23s-2.28.38-2.28.38l-1.28-.28-.89-1.15-.41-.85-.92-.39h0l.49-.36,1.75-.54,2.11-.97,1.87-.12.36.2,1.25-.56.76-.56,2.96-1.3.38-.05.26.22,2.32-.05.91-.12,1.18-.68.41-.04,1.83.2.36.12v.34s.99-.14.99-.14l6.89-3.28,1.83-.72.15-.38-.2-.44-1.04-.09.07-.54,1.37-2.69,1.71-4.38-.53-.51.41-.36.9-.2,1.83-1.71h0l1.4.55.49,3.41,1.81.82,3.14.73,2.17-.27,1.17.77h0l-.06.92-.68,1.17-.16,1.54.83,4.91-.36.49-2.23,1.27-4.33,1.41-2.05,1.25-2.54,2.67-.08,1.2.22.86-.14,1.17-.53,1.07-1.32.37-4.75-.12-4.2.51-1.73-.33-.36-.28-.04-.49.75-1.07.49-1.05-.07-.45-.57-.13-2.02.83-.19.5.22.57,1,.85.18.7-.43.38-1.18.37-1.14-.02-5.83.78-1.06.33h0ZM342.72,347.72l-.49-.7,1.53-1.12,1.35.68.31.51-1.78.36-.3-.25h-.34l-.28.53h0Z"/>
    <path id="BR-RN" class="st2" d="M448.55,152.55l-.67.17-2.54-.15-.75.29-1.78-.8-1.57-.22-4.22.28-.38-.25-2.48-.29-.45-.36.07-.72-.3-.28-1,.04-1.32.98-.22,1.07.52.57.38,1.11-.73-.23-.35.43.12,1.03.34.68-.4.88-.36.54-1.7.67-.6-.54.38-1.12-.64-.85-1.41-.22-1.28.06-2.28.91-.21-.17-.22-1-.23-.17-2.56-.38.06-1.25.15-.22.62-.18.3-.28.28-1.26.32-.7,2.17-2.33v-.86s-.39-.32-.39-.32l-.46-.06-2.36.75-1.04.09-2.3.88-.3.69-.07.75-.59.51-2.34,1.2-.84.82-2.09-.44-.65-.3-1.4-1.19-.41.33h0l-.48.28-.46-.12.25-1.43,1.02-1.63.61-.64.37-.05.57.37.75-.19.41-.8,1.06-1.09,1.01-1.77-.11-.54.47-1.21.63-.41.61-.81,2.39-4.85,1.89-1.46,3.54-1.15h0l.34.55.62.54h2.27s.88.29.88.29l1.22,1.27.96.36,2.41-.23,2.09.38,1.84-.17,1.69-.53,3.26.67.92.03,1.41.62.74.59.46.68,1.67,3.43.36,1.3-.03.54,1.07,3.9.15,1.22.52.39.7,1.95.15,1.1Z"/>
    <path id="BR-RO" class="st2" d="M142.8,230.83l-.93-1.05-.32-1.36-1.13-.38-.62.23-1.31.06-2.95-1.31v-.29s-.49-.44-.49-.44l-.92.43-1.43-1.22-1.1-.7-.62-1.06-.2-1.01-.75-.28-1.28.81-.88-.02-1.02-.58-.63-.96-2.27-1.14-1.42-.12-.83.39-.65.62-1.04-.12-.22-.22-1.55-.37-2.22-.2-.55-.31-.85-.86-.22-1.43-1.14-.36-1.37-.7-.59-1.25-.21-.14-1.97-.2-.28-.25-.61-2.69-.64-.64-.35.84-.48-.23-.2-.46.45-1.11-.61-1.1-.99-.28-.91-2.51-.12-1.2,1.12-2.11-.15-1.2-.84-1.43-.54-1.57-.04-1.66.45-.36.28-.99.75-.76.26-1.07-.17-1.08-.3-.64-.07-1.11.39-1.2-.85-1.58-.74-.28-.79.71-.04.37-.61.7h-.41l-1.58-.74-3.75.06-4.06,1.29h-1.22s-1.07.34-1.07.34h0l-2.15-.91h0l2.36-1.85,1.39-.42,1.12-1.31.11-.41-.12-.93,2.87.19,2.08-.24.52.27,1.67,1.69h.27s.88-.59.88-.59l.09-.52.3-.38.78-.36.56.09.99-.28.94-.88,1.33-.74.28.07.46,1.64.49.38.49-.06,1.84-2.29-.19-1.27.38-.61,1.27-.91h.33s.61.41.61.41l1.3.07.87-.78,1.54-.28,2.8.33-.17-1.06.08-1.31,1.49-.88.59-.83.26-.74-.12-.33-.65-.51.04-.49.86-1.15,1.8-.38.19-.16-.07-.85,1.25-.36,1-1.85,7.82-.04,1.56.82.33.36.58,1.38.96.92,1.84.71.91,2.37.33.15.71-.09.45.14.49,2.09,2.35,1.07.49-.14.39-1.26,1.39-.78,1.01.2.26.28-.03.51h0l1.01.7.43.9-.55,1.03-.93,3.62.04.25.57.34.19.44.11,1.01.6,1.64-.68,1.21.28,1.4-.72,2.55-.02.58.2,1.28,1.09,1.99-.65,6.52,12.43.04-.17.41.88.8,2.54-.07.8.08.78.31,1.02,2.6-.12.54-1.01,1.27-.99.78-.1.96.31,2.35.42.37.65-.02,1.11,2.42-.03,1.49.42,1.08-.05,1.24-.41,1.62-1.2,1.46-.38,1.63-.42.61-.31.3-1.19.38-.67.78-1.04,2.74-.38,1.78-2.98,1.86-1.07,1.04h0l-.54-.03-1.88-1.12-.92-1.04-5.13.7-.96-.31-.18-.22-2.45.48-.35-.12-.38-.98-1.46-1.06Z"/>
    <path id="BR-RR" class="st2" d="M177.06,64.51l1.16,12.3h0l-13.4-.05.02.49-1.69,2.36-1.2,2.2-.05.82-.83,1.91-.08.48.17.53.83,1.02v.38s-.32.28-.32.28l-1.47.4-1.02,1.02-.91.33-1.32-.17-.67-1.82-1.35-1.48-2.05-.67-1.16.04-.4.64-1.51.51-.93.5-.74.91-.59,2.15.27,1.3-.18,1.25-.54,1.66.32,1.53-1.71-.75-.97.3-.38-.05-.75-1.48-1.07-1.2-1.42-.95-.38-.03-3.63-3.2.1-.83,1.33.24.83-.96.04-.42-.82-3.14-.42-.65-.88-.61-.64-1.57-.21-3.61.41-.7.56-2.2-.48-1.14-.26-1.15,1.17-1.06-.04-.33-.63-.81-.14-1.64-1.2-3.45-1.98-2.71.51-1.09.66-2.41-.36-.48-1.41-.69-.99-.08-.64.15-.7-.27-.88-.85-.04-.7-.46-.08-.82.3h-.44s-.54-.25-.54-.25l-.52-.57h0l.22-.33.17-1.65-.22-.16-2.44-.17-2.72.1-2.4-.51-.14-.43.58-1.28.09-1.07-.53-1.28-1.41-2.56-.53-1.49-.34-2.7.57-1.07-.06-.7-1.33-1.45-1.57-.77-2.04-2.01-.77-1.31-.21-.7-.83-.47-.18-.28.02-.61.21-.24.65.05.81.48.68,1.25.44.07,2.46-.36.98.07,1.38.43.44.87.4,1.4.39.25.7-.06.54-.47.69-.29,2.3.12.34.04.95.88.43.11.38-.1.44-1.13.95.1,1.05.67,2.85,3.31.76.41.51.08,1.09-.49.54-.82.07-.61-.6-2,.26-1.26.33-.2,1.4-.04.73-.8,1.12-.79.54.04,2.83.97.43-.12.58-.52.75-.22.82.25.75-.15.97-.93.72-.18.83.17.8-.05.49-.62.04-.98,2.2-1.31,1.69.14,2-.28.64-.82.07-.51.43-.81.54-.09,1.34-.65.8-.75.8-1.24-.87-2.58-.85-.26.46-.13,1.04.05.58.23,2.59-.07.77-.69.54-.16.99.3.38.95.75.58.35.99-.49,3.55-.52,1-.91.51.04.6,1.17.3,1.17-.16,1.7.59,1.32.8-.64,1.04v.83s1.69,2.48,1.69,2.48l.14,1.12-1.09,2.12-1.36,1.02-.52,1.09.2.28.04,1.57-1.07,1.75-.65,2.01-.22,1.86-.07,1.93.71,1.35.37,1.28v1.01s1.13.75,1.13.75l.65.14.09.49-.33,3.73.09.54,1.31.21-.48.85.33.36,1.56.54,1.06,1.39,1.93,1.99,3.06.75Z"/>
    <path id="BR-RS" class="st2" d="M240.38,482.67h-.26s-1.41-.8-1.41-.8l-.14-.33.38-3.09-.33-3.08.11-.78.46-.9,2.06-1.72.6-1.13,1.67-1.85-1.06-1.2-.78-.45-1.63-.43-1.68-1.63-.88-1.17-.07-1.15-.31-.85-.89-1.47-1.49-1.62-.49-.43-1.73-.88-1.05.15-1.38-1.09-1.1-1.18-.91-.57-.1-1.23-1.38-1.57-2.41-.33-.67-.34-1.25-1.2-1.28.09-1.57-1-1.38-2.69-.8-1.08-1.83-1.54-.51.06-.49,1.3-1.88,1.62-1.93.09.07-2.07.29-.93-.28-.72-2.64-3.11-1.72-1.28-1.58-1.49-1.27-1.53-1.95-1.6-1.38-.1-1.56.15-.83.99-.04.7-.75.7h-.8s-.42-.33-.42-.33l-2.29.1-.47-.35-.12-.66-.36-.16.62-.16.75-.52,1.83-2.01.08-1.33.43-.91.59-.33.93-.05.46-.19.67-.72,3.95-4.7.46-1.03.12-.8.59-.78.87-.62.99-.3,1.42-3.06.07-.44.22-.27,1.19-.62,1.18-1.3.62-.83.37-.93.97-1.52.67-.21,1.14.13.4.57.34-.93-.15-.42-.98-.59-.04-.26.25-.24.78-.28.59-.7,2.02-.69.76-.78.07-.67.59-.66,1.6-.83,1.79-.29,1.28-1.31.11-.77.96-1.71.24-.03.04.26.21.14.96-.12,1.77-.82,1.94-.43.88-.41,1.52-1.7h.36s.49-.28.49-.28l.73-.98,1.67-.53.22.28h0l2.55.28,2.36-.83.41-.59.98.42-.11.67,2.23-.02,1.18.72,1.85-.27,1.39.83,1.87-.3,1.12.13,2.03-.12,1.64.67,1.8,1.01.72,1.77,1.15.14.07-.35,1.31-.25,4.03,2.56.99,1.12.51-.02,1.13.71,2.2,2.53,1.19,1.6.35,1.07,1.57,1.93.85.4,4.85.77,1.53-.29,2.43.25.64,1.7-1.51,1.14-.92.3-.53,1.35.16,1.59-.28,1.13-.38.94-.85.14-.93,1.22-.02,1.02,1.3.85.2-.14-.2-.7v-.7s1.09-.59,1.09-.59l1.14.46.53.66.85.62.33-.02h0l-1.01,1.25-2.83,5.1-3.05,8.41-4.56,7.59-3.94,4.83-4.72,4.32-4.41,2.67-2.25,3.12-.13-.31.47-1.14.25-1.58-.85-1.24.07-.3.67-.12.73.29.41.42.74.03,1.87-1.02.59-.49,2.07-2.69.54-.5.33.14.74-.14.76-.61.67-.92.27-1.07.13-.67-.17-1.52.14-.99,1.14-.05.54.22.2.6.25-.19-.21-1.01.37-1.5.35-.41,1.99-1.15.53-.78.34-1.99-.15-1.65.41-.49.36.58.27.02.31-.3.34-2.23-.07-.32-.69-.88-.49-.02-.19.5.12.28-.1.41-.25.14h-1.09s-1.46.28-1.46.28l-.25,1.17-.38.04-.59-.32.07-1.24-.59-.64-.75.24-.43-.35-.53-.91-.29-1.05.09-.41-.46-.5-.44,1.96.32,1.63.91,1.53-.41.59-.54,1.84.28,2.2-.13.56-.35-.27.19-.17-.02-.51-.34-.93-.33-.28-.38.48-.02.99-1.02,2.37-.04,1.37.16.38-.52.51-1.17.46-.44,1.14-2.96,1.14-.52.38-.38,1.15-.07,1.64-.7,1.64-1.71.94-.08,1.28.35.6.18.74-.69.41-.18,1.09.31.43.49-.1.94.46.11.66-1.54,1.2-1.68,3.28-1.4,4.99-1.46,3.25-1.22,1.83-5.64,5.46-1.57,1.15Z"/>
    <path id="BR-SC" class="st2" d="M281.9,424.34l-.33.02-.85-.62-.53-.67-1.15-.46-1.07.59v.7s.2.7.2.7l-.2.14-1.3-.85.03-1.02.93-1.22.85-.14.38-.95.27-1.12-.16-1.59.53-1.35.92-.3,1.51-1.14-.64-1.7-2.43-.25-1.53.29-4.85-.77-.84-.39-1.57-1.93-.36-1.07-1.18-1.6-2.2-2.53-1.14-.72-.51.02-.99-1.12-4.03-2.56-1.31.25-.07.35-1.16-.14-.72-1.77-1.79-1.01-1.64-.67-2.02.12-1.12-.13-1.88.3-1.38-.83-1.86.26-1.18-.71-2.23.02.11-.67-.98-.42-.41.59-2.36.84-2.55-.28h0l1.05-2.12.53-1.51-.42-2.35.3-2.33-.03-1.85.7-1.27h2.63s.51-.26.51-.26h.38s.77.18.77.18l.22.37,1.47,1.02,1.94.02,1.7-.42,3.83,1.22,3.09.26.74.46.12.3,1.14.85,2.73.3,3.08-.09.96,1.38.13-.36.54-.28h.67s.63-.64.63-.64l-.62-2.17.5-1.14.52-.57,1.45-.83,2.59.29,1.35-.7.53-.63.43-1.07,1.11-.47.8-.1,1.03.55.59.02,1.69-.12,2.06-.53h.54s.75.3.75.3l2.26,1.88.89.45,1.04.12,2.43-1.54.98-1.04,1.13-.41.09.28.55.05,1.26-.17.24-.32,3.8.02h0l-.28.96.37,1.2-.05.28-1.09.83-.71-.35-.59-1.83v.81s.41,1.97.41,1.97l1.24,1.2.41.69-.73,1.66-.12,1.68.07.31.55.53.19,4.25.22.4.31.14.56-.37.25.52.07.63-.34.04-.31-.2-.86.46-.25,2.78.41,1.88-.41.54.22,1.4.66,1.36-.62,1.7-.38,2.91-1.24,3.39-.25-.07-.26-.55.15-.7-.67-.85-.19.24.13,1.76.84.6-.67,1.2-1.19.47-2.99,2.2-2.03,1.85-2.72,3.22-.75,1.36h0ZM294.86,405.1l-.11-.34.18-1.27.55-1.74-.29-.85.12-.74,1.01-.55.16.04.48.68-.39,1.85-.59.62-.43.88.14.85-.83.56h0ZM294.53,387.44l-1.35-1.46,1.85-1.77.18.03.47.76-.62.96-.52,1.49Z"/>
    <path id="BR-SE" class="st2" d="M420.03,209.63l-2.1.64-1.12-.46-.39-.25-.35-.52-1.39-.67-.43-.38-.09-.3.25-.28.09-1.03-.11-.28-1.04-1.09-.38-1.08-.79-.49-.7-1.16v-.56s.41-1.14.41-1.14l.23-.22h1.23s.82.55.82.55l1.85-.72.5-.4.22-.42-.55-1.99.06-.64.48-1.17.06-2.25-.54-.83-1.44-1.41-.92-1.81-.16-1.55.49-.83h0l4.68,2.16,2.67.69,3.93,2.22.94,1.78,1.28,1.05,1.2.57.33.02,2.6,1.62.43.95h0l-1.72.55-3.31,2.13-.7.64-1.12,1.6h-.23s.08-.81.08-.81l-.76-1.32-.72.12.25.84h.9l.17.17-.38,1.43-.92,1.51-.38-.25-.27-.49-.72-.12.14.49.82.45-.19,1.28-.62.83-.67,1.47-.57.11-.22-.33.35-1.01.3-.09.22-.31.27-.75-.59-.27.07.49-.33.82-.35.36-.19.79.2.52-.19.38-.87.45Z"/>
    <path id="BR-SP" class="st2" d="M300.22,373.55l-.12-.96-1.03-.41-.53-2.39.29-1.41-1.55-.42-.55.12-.8,2.01-.48.62-.77-.38-.25-.57.5-2.39.64-.48.1-.29-1.17-.92-1.15-.09-1.14.14-.36-.28-2.47.38-1.72.09-.73-.15-.43-.28-.24-1.48.93-1.54.18-.76-.18-.32-.43-.22-.67-1.43.04-.64-.36-.49-.49-.21-.88-.83-1.08-2.18.26-.4.06-1.28-.94-1.1-.28-1.33.12-.59.28-.42v-1.99s-.66-1.28-.66-1.28l-2.6-2.05-.82-1.12-2.15.62-3.85-.09-.48-.39-1.2-.1-.3.25-1.25-.05-.52-.96-.46-.37-2.54-.58-1.27-.61-.57-.72h-1.87s-.78.4-.78.4l-.96-.09-1.91-.79-1.83-.33-1.07-.57-.85-.21-.53.27-.25.43-.88.45-2.38-.21-2.91.08-2.78-.47-2.35,1.66h0l.61-.78.53-1.12.91-.83,5.48-3.29,1.41-1.35.91-1.76,1.25-1.22.29-.88,1.04-.75.2-.88-.25-.61,1.45-1.64.88-1.7.05-.68-.22-1.4.17-.28.7-.38,1.88-2.64.12-2.12.45-1.22.73-.22.53-.46,1.44-1.94.88-.74.34-.17.95-.03,1.09-.57.2-.29.29-1.78h0l.88-.82,1.56-.8,1.39-.27,1.04-1.22,1.09-.44.54.1,1.25,1.12,1.85.06,3.11.7,1.21-.26,1.17.16,1.45-.43,1.58,1.03,1.21.57-.09.67.24,1.03.88,1.51.46.02.39-.23.49-.68.3-.82.19-.14.4.04.26.28.18.7v2.01s.88.38.88.38l.3-.33-.2-1.84.36-.86.33-.35,5.93-.49.73-.91,1.09,1.06.81.31,2.01-.5.32-.72-.14-.33.22-.44,1.72-.08,1.2.57.62-.46.95-.21,2.36,2.43.14.75-.41.73-.21,1.72.42.44,1.37.88.29,1.12-.04.41-1.1,1.47-.13,1.41.57.54.22.44.27,1.6.94,1.3.6,1.44-.02.62,1.17-.04.57-.22.2-.26.72-.04,2.68.96.17.27-.04.92-.51,1.58-1.35,1.97.19,2.13-.14,2.5-.38,1.13.52,1.16,1.29.9,1.31.6.37,1.25-.88.51,1.46,2.4.82.18,1.46-.17.13.38,2.62-.72.41.3.95-.23.54-.71.04-.61-.17-.17.12-1.67.86-.24.07.25-.25.36v.35s1.7.06,1.7.06l1.73-.18,1.3-.49.89-.9,1.4-.74,1.6-.16.9-.53h0l.92.39.41.85.89,1.15,1.28.28,2.28-.38h1.23s.54,1.2.54,1.2l-1.2,1.56-1.09.51-2.01.26-.36-.11-1.7.73-.79.83-.79,2.54.04.3,1.18,1.25.35.19h0l-.04.14-1.22.3-.77-.59-1.07.8-.31.47.2.16-.55.46-2.33,1.12-1.63.51-.2.32.03.7.36,1.12-.23.3-1.01.19-.51-.46-.97-.21-2.26-.36-.62.11-.96.25-1.25.59-.36.37-.88,1.56-.95.41-.36-.09.42-.34-.35-.88-.85-.62-.6.89.19.54-.22.44-5.52,3.07-.69.59-.22.84-2.37,2.17-2.35,1.41-1.39.38-3.26,2.33-1.69,1.42-.49.06-.32.45.65.31.48.04.67-.26v.55l-.45.95-.96.62-.77,1.07h0ZM332.32,356.88l-1.12-.47-.84.13-.36-.28.07-.57.69-.47.79-1.34.52.18.48.47.09,2.11-.33.23h0Z"/>
    <path id="BR-TO" class="st2" d="M321.06,224.22l-3.88,1.03-1.26.97-1.85.8h-1.12l-3.28.72-1.83,1.51-1.29.65-.33-.17-1.09-1.9-.4-.02-.37,2.39-.5.06-2.43-.49-2.27-1.07.41-1.13-.16-.54-3.28.38-2-.25-.41.39-.22.72-.54.54-.83-.04-.44-2.25-.8-2.69-.75-1.36-.83-.95-.85.7-1.07,1.73-1.18,4.3-.46.17-2.95-1.04-2.24-1.24-2.85-.29-1.59-.75-1.74-.29.38-1.7.88-1.36.02-1.24-.41.22-1.31,1.51-.48.89-.14,1.36-.25.33h-.58s-.7-.38-.7-.38l-.71-2.42.54-2-.32-2.21-.38-.42v-1.14s.33-2.4.33-2.4l-.8-1.63.04-.36.59-.64.12-.63-1.01-.97-.04-.62,1.36-4.34.03-2.14.39-2.15,1.41-3.83.27-.2.31-.62.32-2.28.8-.91.41-1.37.47-.74h0l1.17-2.67.82-3.22.83-1.14.86-.8.88-1.22.75-1.39.99-.67.76-.12.53-.62.68-1.12.13-.72,1.23-2.35.79-.58,1.28-3.73.48-2.93-.11-.22-.54-.23-1.21-1.26-.43-.69-.12-.64.1-.41,1.02-1.22.93-1.52-.04-1.93-.31-1.58.14-.25,1.79-1.29,2.47-.83,1.81-.88.17-.36-.11-1.09.62-.92,1.09-.97.93-.11.14-.97-.21-.87.18-.33,1.06-.33.46-.35.67-1.99-.74-.97-.07-1.01.21-.2.7-.06.52-.27.27-.48.02-.46-.91-.85-.63-.1-.28-.22-.74-1.2-.93-.09-1.35.18-1.66-.59h0l.38-.46,1.9-1.34,1.42-.38.63.04,2.01,1.1,1.01.06.69-.38,1.26.21.43.5.06.75.2.23.88.02,2.46,1.04.61.75.34,2.54.46,1.09-.15,2.7.17.78.49.82v.32s-1.29,4.46-1.29,4.46l-.22,1.72.2.72-.18,1.15-1.27,1.48-1.28.49-.13.51,1.41.96.3-.2.99.17.18.25.08.64-.45.86.62,1.04.64-.05,2.17,3.01.66.62,1.65,2.19,1.55-.97,3.09-.68,1.3.88.06,1.27-.46,2.35.28.98-2.46.25-.97.39-.41.4-.49,1.04-.53,1.94.27.94-1.91,1.85-.19.51.14.3,1.51.21.68.5.54,1.15.04,1.2.45.75,2.81,1.41.07.38-1.19,1.31.09,1.2,1.55,1.17.72,2.08.97,1.45.51.13,1.29-.15.72.22.59.32.44.59.93.48h0l2.13.15h0l-.5.47-.16.71-.41.34-2.77,1.46-2.33,1.9-.14.27.93,1.3-.26.28-.73.2-.65.44-1.1,2.53-.73.52-.36.84.17.67,1.35,1.41,2.6.49,1.35.72.04.55-.41.33-1.48.59-.31.7.07.36.25.24.75-.13.67.21.42.37.21.46-.7.51-.83.3-1.41,1.21-.14.62-.04,2.12.25.91.68.48.76.17.3.18.12.3.04.77-.99,1.72.03.67Z"/>
  </g>
  <g>
    <g id="ryAwj6">
      <g>
        <path class="st0" d="M301.6,207.32c11.77-.96,21.31,8.27,20.47,20.1-.6,8.35-7.93,19.51-12.91,26.12-.83,1.1-3.34,4.57-4.33,5.15-1.92,1.13-3.08-.28-4.2-1.59-5.85-6.85-15.14-20.76-15.71-29.8-.63-9.95,6.59-19.16,16.68-19.98ZM302.47,219.29c-8.07.97-7.21,14.13,1.94,13.17,8.2-.86,7.36-14.29-1.94-13.17Z"/>
        <path class="st0" d="M302.47,219.29c9.3-1.12,10.14,12.3,1.94,13.17-9.16.96-10.02-12.2-1.94-13.17Z"/>
      </g>
    </g>
    <path class="st1" d="M303.49,239.94c-3.3,0-6.33-1.14-8.73-3.05h.01c-.04-.1-3.97-9.16-.03-16.11,1.57-2.77,3.6-4.19,5.48-4.9l.03,21.51.45.1s.75.16,1.82.16c.72,0,1.61-.07,2.58-.28,2.25-.5,5.39-1.92,7.63-5.86,1.76-3.09,2.27-7.14,1.49-11.7-.28-1.63-.67-3.05-1.01-4.1,2.68,2.56,4.35,6.17,4.35,10.16,0,7.76-6.32,14.08-14.08,14.08M305.16,236.19c-1.65.41-3.06.33-3.75.25l-.03-20.91c1.62-.4,3.01-.32,3.7-.24l.08,20.9ZM289.41,225.86c0-7.76,6.32-14.08,14.08-14.08,2.96,0,5.71.92,7.98,2.49.05.12,4.21,9.74.28,16.67-1.56,2.75-3.57,4.17-5.43,4.89l-.08-21.49-.45-.1c-.08-.02-1.97-.41-4.4.12-2.25.5-5.39,1.92-7.63,5.86-3.04,5.35-1.81,11.67-.82,14.94-2.19-2.48-3.52-5.73-3.52-9.29M303.49,210.63c-8.4,0-15.23,6.83-15.23,15.23s6.83,15.23,15.23,15.23,15.23-6.83,15.23-15.23-6.83-15.23-15.23-15.23"/>
  </g>
  <g>
    <g id="ryAwj61" data-name="ryAwj6">
      <g>
        <path class="st0" d="M224.43,285.11c11.77-.96,21.31,8.27,20.47,20.1-.6,8.35-7.93,19.51-12.91,26.12-.83,1.1-3.34,4.57-4.33,5.15-1.92,1.13-3.08-.28-4.2-1.59-5.85-6.85-15.14-20.76-15.71-29.8-.63-9.95,6.59-19.16,16.68-19.98ZM225.3,297.08c-8.07.97-7.21,14.13,1.94,13.17,8.2-.86,7.36-14.29-1.94-13.17Z"/>
        <path class="st0" d="M225.3,297.08c9.3-1.12,10.14,12.3,1.94,13.17-9.16.96-10.02-12.2-1.94-13.17Z"/>
      </g>
    </g>
    <path class="st1" d="M226.32,317.73c-3.3,0-6.33-1.14-8.73-3.05h.01c-.04-.1-3.97-9.16-.03-16.11,1.57-2.77,3.6-4.19,5.48-4.9l.03,21.51.45.1s.75.16,1.82.16c.72,0,1.61-.07,2.58-.28,2.25-.5,5.39-1.92,7.63-5.86,1.76-3.09,2.27-7.14,1.49-11.7-.28-1.63-.67-3.05-1.01-4.1,2.68,2.56,4.35,6.17,4.35,10.16,0,7.76-6.32,14.08-14.08,14.08M227.99,313.98c-1.65.41-3.06.33-3.75.25l-.03-20.91c1.62-.4,3.01-.32,3.7-.24l.08,20.9ZM212.24,303.65c0-7.76,6.32-14.08,14.08-14.08,2.96,0,5.71.92,7.98,2.49.05.12,4.21,9.74.28,16.67-1.56,2.75-3.57,4.17-5.43,4.89l-.08-21.49-.45-.1c-.08-.02-1.97-.41-4.4.12-2.25.5-5.39,1.92-7.63,5.86-3.04,5.35-1.81,11.67-.82,14.94-2.19-2.48-3.52-5.73-3.52-9.29M226.32,288.42c-8.4,0-15.23,6.83-15.23,15.23s6.83,15.23,15.23,15.23,15.23-6.83,15.23-15.23-6.83-15.23-15.23-15.23"/>
  </g>
  <g>
    <g id="ryAwj62" data-name="ryAwj6">
      <g>
        <path class="st0" d="M290.09,350.48c11.77-.96,21.31,8.27,20.47,20.1-.6,8.35-7.93,19.51-12.91,26.12-.83,1.1-3.34,4.57-4.33,5.15-1.92,1.13-3.08-.28-4.2-1.59-5.85-6.85-15.14-20.76-15.71-29.8-.63-9.95,6.59-19.16,16.68-19.98ZM290.96,362.45c-8.07.97-7.21,14.13,1.94,13.17,8.2-.86,7.36-14.29-1.94-13.17Z"/>
        <path class="st0" d="M290.96,362.45c9.3-1.12,10.14,12.3,1.94,13.17-9.16.96-10.02-12.2-1.94-13.17Z"/>
      </g>
    </g>
    <path class="st1" d="M291.98,383.11c-3.3,0-6.33-1.14-8.73-3.05h.01c-.04-.1-3.97-9.16-.03-16.11,1.57-2.77,3.6-4.19,5.48-4.9l.03,21.51.45.1s.75.16,1.82.16c.72,0,1.61-.07,2.58-.28,2.25-.5,5.39-1.92,7.63-5.86,1.76-3.09,2.27-7.14,1.49-11.7-.28-1.63-.67-3.05-1.01-4.1,2.68,2.56,4.35,6.17,4.35,10.16,0,7.76-6.32,14.08-14.08,14.08M293.65,379.35c-1.65.41-3.06.33-3.75.25l-.03-20.91c1.62-.4,3.01-.32,3.7-.24l.08,20.9ZM277.9,369.03c0-7.76,6.32-14.08,14.08-14.08,2.96,0,5.71.92,7.98,2.49.05.12,4.21,9.74.28,16.67-1.56,2.75-3.57,4.17-5.43,4.89l-.08-21.49-.45-.1c-.08-.02-1.97-.41-4.4.12-2.25.5-5.39,1.92-7.63,5.86-3.04,5.35-1.81,11.67-.82,14.94-2.19-2.48-3.52-5.73-3.52-9.29M291.98,353.8c-8.4,0-15.23,6.83-15.23,15.23s6.83,15.23,15.23,15.23,15.23-6.83,15.23-15.23-6.83-15.23-15.23-15.23"/>
  </g>
  <g>
    <rect class="st0" x="335.57" y="242.49" width="21.67" height="21.67" transform="translate(280.59 -170.74) rotate(45)"/>
    <rect class="st0" x="344.8" y="217.37" width="148.57" height="81.76"/>
  </g>
  <g>
    <path class="st1" d="M359.22,226.92h2.2c1.74,0,2.58.3,2.58,1.53s-.83,1.2-1.5,1.25v.35c.95.04,1.96.12,1.96,1.45,0,1.42-1.3,1.66-2.93,1.66h-2.3v-6.25ZM361.6,229.3c.58,0,.98,0,.98-.57s-.41-.57-.98-.57h-.96v1.13h.96ZM361.7,231.93c.84,0,1.34,0,1.34-.69s-.5-.7-1.34-.7h-1.06v1.39h1.06Z"/>
    <path class="st1" d="M365.17,226.92h2.42c1.49,0,2.78.35,2.78,1.75,0,1.03-.83,1.31-1.59,1.4v.35h.91c.49,0,.75.27.75.75v1.99h-1.42v-2.2h-2.45v2.2h-1.42v-6.25ZM367.59,229.73c.84,0,1.37,0,1.37-.78s-.52-.79-1.37-.79h-1v1.57h1Z"/>
    <path class="st1" d="M375.6,231.17h-2.54l-.56,2h-1.44l1.8-6.25h2.93l1.81,6.25h-1.44l-.57-2ZM375.26,229.93l-.74-2.65h-.35l-.75,2.65h1.84Z"/>
    <path class="st1" d="M380.79,233.26c-2.25,0-3.09-.92-3.09-2.5h1.42c0,.96.48,1.26,1.72,1.26.91,0,1.21-.21,1.21-.55,0-.45-.76-.66-1.68-.97-1.32-.44-2.39-.8-2.39-2.02,0-1.06.84-1.65,2.46-1.65,1.92,0,2.78.98,2.78,2.22h-1.42c0-.76-.58-.98-1.36-.98-.64,0-1.04.14-1.04.46,0,.28.15.39,1.15.73,1.15.39,2.92.89,2.92,2.19,0,1.07-.75,1.81-2.68,1.81Z"/>
    <path class="st1" d="M386.75,228.17v3.77h1.42v1.24h-4.25v-1.24h1.42v-3.77h-1.42v-1.24h4.25v1.24h-1.42ZM384.33,226.48l-.24-1.01,3.46-.76.24,1.01-3.46.76Z"/>
    <path class="st1" d="M388.96,232.52v-5.59h1.42v5.1l3.04-.09v1.24l-3.7.09c-.49,0-.76-.26-.76-.75Z"/>
    <path class="st1" d="M396.88,228.17v3.77h1.42v1.24h-4.25v-1.24h1.42v-3.77h-1.42v-1.24h4.25v1.24h-1.42Z"/>
    <path class="st1" d="M403.45,231.17h-2.54l-.56,2h-1.44l1.8-6.25h2.93l1.81,6.25h-1.44l-.57-2ZM403.1,229.93l-.74-2.65h-.35l-.75,2.65h1.84Z"/>
    <path class="st1" d="M363,243.68h-2.51l-.78,2.45h-.73l2.02-6.25h1.49l2.01,6.25h-.72l-.79-2.45ZM362.8,243.06l-.96-2.98h-.2l-.95,2.98h2.11Z"/>
    <path class="st1" d="M367.09,246.21c-1.43,0-2.01-.67-2.01-1.71h.73c0,.76.44,1.12,1.29,1.12.68,0,1-.16,1-.61,0-.58-.59-.67-1.31-.9-.83-.27-1.51-.52-1.51-1.32,0-.7.59-1.16,1.6-1.16,1.37,0,1.79.75,1.79,1.48h-.73c0-.59-.36-.89-1.06-.89-.49,0-.88.14-.88.54,0,.43.3.56,1.01.79.87.28,1.81.48,1.81,1.43,0,.67-.42,1.23-1.74,1.23Z"/>
    <path class="st1" d="M370.95,243.62l1.75-.17c-.04-.81-.48-1.21-1.24-1.21-.64,0-1.23.28-1.23,1.12h-.71c0-.91.69-1.73,1.94-1.73s1.97.82,1.97,1.99v1.88h.65v.62h-.78c-.34,0-.52-.19-.52-.51v-.24l.12-.46h-.21c-.17.67-.64,1.3-1.7,1.3-1.28,0-1.47-.85-1.47-1.31,0-.7.42-1.18,1.45-1.29ZM371.06,245.59c1,0,1.64-.69,1.64-1.6l-1.63.17c-.56.05-.84.22-.84.66,0,.51.32.78.83.78Z"/>
    <path class="st1" d="M380.43,246.21c-2.18,0-2.83-.97-2.83-2.43h.73c0,1.48.79,1.81,2.1,1.81,1.06,0,1.68-.26,1.68-1.01,0-.95-1.1-1.14-2.09-1.44-1.23-.37-2.13-.71-2.13-1.82,0-.96.67-1.54,2.22-1.54,1.84,0,2.47,1.13,2.47,2.15h-.73c0-1.06-.79-1.52-1.75-1.52-.86,0-1.49.21-1.49.9s.55.9,1.58,1.21c1.22.38,2.64.72,2.64,2.02,0,.93-.56,1.67-2.4,1.67Z"/>
    <path class="st1" d="M387.18,243.68v-1.96h.72v4.41h-.72v-.76l.12-.51h-.2c-.18.8-.74,1.36-1.69,1.36s-1.65-.58-1.65-1.8v-2.7h.73v2.6c0,.92.35,1.28,1.12,1.28.93,0,1.59-.74,1.59-1.92Z"/>
    <path class="st1" d="M388.83,245.5h1.24v-5.35l-.91.08v-.62l1.03-.09c.41-.04.6.19.6.61v5.37h1.23v.62h-3.19v-.62Z"/>
    <path class="st1" d="M396.6,238.56v8.87h-.59v-8.87h.59Z"/>
    <path class="st1" d="M403.48,246.21c-2.18,0-2.83-.97-2.83-2.43h.73c0,1.48.79,1.81,2.1,1.81,1.06,0,1.68-.26,1.68-1.01,0-.95-1.1-1.14-2.09-1.44-1.23-.37-2.13-.71-2.13-1.82,0-.96.67-1.54,2.22-1.54,1.84,0,2.47,1.13,2.47,2.15h-.73c0-1.06-.79-1.52-1.75-1.52-.86,0-1.49.21-1.49.9s.55.9,1.58,1.21c1.22.38,2.64.72,2.64,2.02,0,.93-.56,1.67-2.4,1.67Z"/>
    <path class="st1" d="M410.23,243.68v-1.96h.72v4.41h-.72v-.76l.12-.51h-.2c-.18.8-.74,1.36-1.69,1.36s-1.65-.58-1.65-1.8v-2.7h.73v2.6c0,.92.35,1.28,1.12,1.28.93,0,1.59-.74,1.59-1.92Z"/>
    <path class="st1" d="M415.91,246.13v-.65l.12-.5h-.21c-.19.68-.78,1.23-1.78,1.23-1.28,0-2.1-.98-2.1-2.3s.82-2.29,2.1-2.29c1,0,1.6.55,1.78,1.24h.21l-.12-.51v-2.76h.73v6.52h-.73ZM414.26,242.25c-.91,0-1.59.5-1.59,1.67s.67,1.68,1.59,1.68,1.66-.5,1.66-1.68-.74-1.67-1.66-1.67Z"/>
    <path class="st1" d="M420.04,241.63c1.4,0,2.31,1.01,2.31,2.29s-.91,2.3-2.31,2.3-2.33-1.01-2.33-2.3.92-2.29,2.33-2.29ZM420.04,245.59c1.04,0,1.6-.75,1.6-1.68s-.56-1.67-1.6-1.67-1.6.75-1.6,1.67.56,1.68,1.6,1.68Z"/>
    <path class="st1" d="M425.32,241.63c1.24,0,2.06.79,2.06,2.15v.28h-3.48c.04.83.44,1.55,1.53,1.55.73,0,1.21-.35,1.37-1.03h.73c-.17.68-.7,1.63-2.1,1.63-1.58,0-2.24-1.08-2.24-2.35,0-1.42.89-2.23,2.14-2.23ZM426.67,243.51c0-.71-.47-1.27-1.35-1.27s-1.43.56-1.43,1.27h2.78Z"/>
    <path class="st1" d="M430.28,246.21c-1.43,0-2.01-.67-2.01-1.71h.73c0,.76.44,1.12,1.29,1.12.68,0,1-.16,1-.61,0-.58-.59-.67-1.31-.9-.83-.27-1.51-.52-1.51-1.32,0-.7.59-1.16,1.6-1.16,1.37,0,1.79.75,1.79,1.48h-.73c0-.59-.36-.89-1.06-.89-.49,0-.88.14-.88.54,0,.43.3.56,1.01.79.87.28,1.81.48,1.81,1.43,0,.67-.42,1.23-1.74,1.23Z"/>
    <path class="st1" d="M435.74,245.5v.62l-1.67.09c-.42.03-.6-.2-.6-.6v-3.27h-.97v-.62h.97v-1.13l.72-.22v1.36h1.37v.62h-1.37v3.26l1.55-.1Z"/>
    <path class="st1" d="M438.47,241.63c1.24,0,2.06.79,2.06,2.15v.28h-3.48c.04.83.44,1.55,1.53,1.55.73,0,1.21-.35,1.37-1.03h.73c-.17.68-.7,1.63-2.1,1.63-1.58,0-2.24-1.08-2.24-2.35,0-1.42.89-2.23,2.14-2.23ZM439.81,243.51c0-.71-.47-1.27-1.35-1.27s-1.43.56-1.43,1.27h2.78Z"/>
    <path class="st1" d="M359.33,258.63v-5.81h.73v5.72l3.15-.09v.62l-3.33.09c-.35,0-.54-.2-.54-.53Z"/>
    <path class="st1" d="M365.42,256.57l1.75-.17c-.04-.81-.48-1.21-1.24-1.21-.64,0-1.23.28-1.23,1.12h-.71c0-.91.69-1.73,1.94-1.73s1.97.82,1.97,2v1.88h.65v.62h-.78c-.34,0-.52-.19-.52-.51v-.24l.12-.46h-.21c-.17.67-.64,1.3-1.7,1.3-1.28,0-1.47-.85-1.47-1.31,0-.7.42-1.18,1.45-1.29ZM365.53,258.54c1,0,1.64-.69,1.64-1.6l-1.63.17c-.56.05-.84.22-.84.66,0,.51.32.78.83.78Z"/>
    <path class="st1" d="M374.07,254.67v.62h-.37c-.25,0-.41.05-.58.18.19.23.3.55.3.93,0,.95-.74,1.54-2.07,2.03,1.03-.17,2.02-.03,2.02.95,0,1.17-1.21,1.32-4.16,1.32v-.62c2.53,0,3.43-.06,3.43-.75,0-.97-1.94-.5-3.03-.18l-.15-.51c.71-.2,1.41-.4,2.09-.61v-.2c-1.42.36-2.66-.1-2.66-1.46,0-1.21.99-1.78,2.26-1.78.53,0,1.08.13,1.5.43.46-.29.63-.34,1.03-.34h.39ZM372.7,256.38c0-.85-.6-1.18-1.53-1.18s-1.54.33-1.54,1.18.62,1.19,1.54,1.19,1.53-.33,1.53-1.19Z"/>
    <path class="st1" d="M376.9,254.58c1.4,0,2.31,1.01,2.31,2.29s-.91,2.3-2.31,2.3-2.33-1.01-2.33-2.3.92-2.29,2.33-2.29ZM376.9,258.54c1.04,0,1.6-.75,1.6-1.67s-.56-1.67-1.6-1.67-1.6.75-1.6,1.67.56,1.67,1.6,1.67Z"/>
    <path class="st1" d="M385.84,259.17c-2.18,0-2.83-.97-2.83-2.43h.73c0,1.48.79,1.81,2.1,1.81,1.06,0,1.68-.26,1.68-1.01,0-.95-1.1-1.14-2.09-1.44-1.23-.37-2.13-.71-2.13-1.82,0-.96.67-1.54,2.22-1.54,1.84,0,2.47,1.13,2.47,2.15h-.73c0-1.06-.79-1.52-1.75-1.52-.86,0-1.49.21-1.49.9,0,.66.55.89,1.58,1.21,1.22.38,2.64.72,2.64,2.02,0,.93-.56,1.67-2.4,1.67Z"/>
    <path class="st1" d="M392.59,256.63v-1.96h.72v4.41h-.72v-.76l.12-.5h-.2c-.18.8-.74,1.36-1.69,1.36s-1.65-.58-1.65-1.8v-2.7h.73v2.6c0,.92.35,1.28,1.12,1.28.93,0,1.59-.74,1.59-1.92Z"/>
    <path class="st1" d="M394.24,258.46h1.24v-5.36l-.91.08v-.62l1.03-.09c.41-.04.6.2.6.61v5.37h1.23v.62h-3.19v-.62Z"/>
    <path class="st1" d="M402,251.51v8.88h-.59v-8.88h.59Z"/>
    <path class="st1" d="M405.98,259.08v-.62l1.44.09c1.04.06,1.17-.58,1.17-2.34v-2.85l-1.64.09v-.62l1.83-.09c.35-.02.53.2.53.53v3.01c0,1.79-.19,2.99-1.89,2.88l-1.44-.09Z"/>
    <path class="st1" d="M411.76,256.57l1.75-.17c-.04-.81-.48-1.21-1.24-1.21-.64,0-1.23.28-1.23,1.12h-.71c0-.91.69-1.73,1.94-1.73s1.97.82,1.97,2v1.88h.65v.62h-.78c-.34,0-.52-.19-.52-.51v-.24l.12-.46h-.21c-.17.67-.64,1.3-1.7,1.3-1.28,0-1.47-.85-1.47-1.31,0-.7.42-1.18,1.45-1.29ZM411.88,258.54c1,0,1.64-.69,1.64-1.6l-1.63.17c-.56.05-.84.22-.84.66,0,.51.32.78.83.78Z"/>
    <path class="st1" d="M415.73,255.19c0-.42.19-.62.61-.6l2.45.08v.62l-2.33-.08v3.87h-.73v-3.88Z"/>
    <path class="st1" d="M423.12,259.08v-.65l.12-.5h-.21c-.19.68-.78,1.23-1.78,1.23-1.28,0-2.1-.98-2.1-2.3s.82-2.29,2.1-2.29c1,0,1.6.55,1.78,1.24h.21l-.12-.5v-2.76h.73v6.52h-.73ZM421.46,255.2c-.91,0-1.59.5-1.59,1.67s.67,1.67,1.59,1.67,1.66-.5,1.66-1.67-.74-1.67-1.66-1.67Z"/>
    <path class="st1" d="M424.87,258.46h1.24v-3.25l-.91.08v-.62l1.02-.09c.42-.04.58.2.58.53v3.34h1.24v.62h-3.17v-.62ZM425.7,253.35c0-.34.28-.61.64-.61s.64.28.64.61c0,.35-.28.62-.64.62s-.64-.27-.64-.62Z"/>
    <path class="st1" d="M435.74,256.3v2.77h-.73v-2.61c0-.85-.19-1.27-.9-1.27-.88,0-1.4.78-1.4,1.93v1.94h-.73v-2.61c0-.85-.19-1.27-.9-1.27-.88,0-1.4.78-1.4,1.93v1.94h-.73v-4.41h.73v.75l-.12.5h.2c.18-.8.64-1.34,1.58-1.34.8,0,1.22.55,1.32,1.34h.13c.18-.8.64-1.34,1.58-1.34s1.37.74,1.37,1.72Z"/>
    <path class="st1" d="M439.89,252.83h1.66c1.53,0,2.4.3,2.4,1.53,0,.9-.6,1.28-1.25,1.32v.21c.96.02,1.71.41,1.71,1.52,0,1.26-.95,1.66-2.46,1.66h-2.06v-6.25ZM441.57,255.51c1.02,0,1.65-.15,1.65-1.04,0-.97-.63-1.03-1.65-1.03h-.96v2.07h.96ZM441.97,258.46c1.06,0,1.71-.18,1.71-1.16,0-.91-.65-1.16-1.71-1.16h-1.36v2.32h1.36Z"/>
    <path class="st1" d="M447.57,254.58c1.4,0,2.31,1.01,2.31,2.29s-.91,2.3-2.31,2.3-2.33-1.01-2.33-2.3.92-2.29,2.33-2.29ZM447.57,258.54c1.04,0,1.6-.75,1.6-1.67s-.56-1.67-1.6-1.67-1.6.75-1.6,1.67.56,1.67,1.6,1.67Z"/>
    <path class="st1" d="M453.55,258.46v.62l-1.67.09c-.42.03-.6-.2-.6-.6v-3.27h-.97v-.62h.97v-1.13l.72-.22v1.36h1.37v.62h-1.37v3.26l1.55-.1Z"/>
    <path class="st1" d="M455.83,256.57l1.75-.17c-.04-.81-.48-1.21-1.24-1.21-.64,0-1.23.28-1.23,1.12h-.71c0-.91.69-1.73,1.94-1.73s1.97.82,1.97,2v1.88h.65v.62h-.78c-.34,0-.52-.19-.52-.51v-.24l.12-.46h-.21c-.17.67-.64,1.3-1.7,1.3-1.28,0-1.47-.85-1.47-1.31,0-.7.42-1.18,1.45-1.29ZM457.46,254.1l-1.02-.83-1.01.83-.42-.41,1.44-1.16,1.44,1.16-.42.41ZM455.95,258.54c1,0,1.64-.69,1.64-1.6l-1.63.17c-.56.05-.84.22-.84.66,0,.51.32.78.83.78Z"/>
    <path class="st1" d="M460.52,257.13v1.95h-.73v-4.41h.73v.76l-.12.5h.2c.18-.8.74-1.36,1.69-1.36s1.64.58,1.64,1.8v2.7h-.72v-2.6c0-.92-.36-1.28-1.12-1.28-.93,0-1.59.74-1.59,1.92Z"/>
    <path class="st1" d="M464.87,258.46h1.24v-3.25l-.91.08v-.62l1.02-.09c.42-.04.58.2.58.53v3.34h1.24v.62h-3.17v-.62ZM465.7,253.35c0-.34.28-.61.64-.61s.64.28.64.61c0,.35-.28.62-.64.62s-.64-.27-.64-.62Z"/>
    <path class="st1" d="M470.78,254.58c.85,0,1.94.48,2.06,1.76h-.74c-.12-.84-.68-1.13-1.32-1.13-1.05,0-1.52.76-1.52,1.67s.48,1.67,1.52,1.67c.64,0,1.2-.29,1.32-1.13h.74c-.12,1.28-1.21,1.76-2.06,1.76-1.43,0-2.25-1.02-2.25-2.3s.82-2.29,2.25-2.29Z"/>
    <path class="st1" d="M475.99,254.58c1.4,0,2.31,1.01,2.31,2.29s-.91,2.3-2.31,2.3-2.33-1.01-2.33-2.3.92-2.29,2.33-2.29ZM475.99,258.54c1.04,0,1.6-.75,1.6-1.67s-.56-1.67-1.6-1.67-1.6.75-1.6,1.67.56,1.67,1.6,1.67Z"/>
    <path class="st1" d="M359.33,265.78h1.46l3.12,6.05h.2l-.12-.52v-5.52h.72v6.25h-1.46l-3.11-6.05h-.2l.12.52v5.52h-.73v-6.25Z"/>
    <path class="st1" d="M368.05,267.53c1.4,0,2.31,1.01,2.31,2.29s-.91,2.3-2.31,2.3-2.33-1.01-2.33-2.3.92-2.29,2.33-2.29ZM368.05,271.5c1.04,0,1.6-.75,1.6-1.67s-.56-1.67-1.6-1.67-1.6.75-1.6,1.67.56,1.67,1.6,1.67Z"/>
    <path class="st1" d="M371.37,268.15c0-.42.19-.62.61-.6l2.45.08v.62l-2.33-.08v3.87h-.73v-3.88Z"/>
    <path class="st1" d="M377.13,267.53c1.4,0,2.31,1.01,2.31,2.29s-.91,2.3-2.31,2.3-2.33-1.01-2.33-2.3.92-2.29,2.33-2.29ZM377.13,271.5c1.04,0,1.6-.75,1.6-1.67s-.56-1.67-1.6-1.67-1.6.75-1.6,1.67.56,1.67,1.6,1.67Z"/>
    <path class="st1" d="M382.41,267.53c1.24,0,2.06.79,2.06,2.15v.28h-3.48c.04.83.44,1.55,1.53,1.55.73,0,1.21-.35,1.37-1.03h.73c-.17.68-.7,1.63-2.1,1.63-1.58,0-2.24-1.08-2.24-2.35,0-1.42.89-2.23,2.14-2.23ZM383.76,269.41c0-.71-.47-1.27-1.35-1.27s-1.43.56-1.43,1.27h2.78Z"/>
    <path class="st1" d="M387.37,272.12c-1.43,0-2.01-.67-2.01-1.71h.73c0,.76.44,1.12,1.29,1.12.68,0,1-.16,1-.61,0-.58-.59-.67-1.31-.9-.83-.27-1.51-.52-1.51-1.32,0-.7.59-1.16,1.6-1.16,1.37,0,1.79.75,1.79,1.48h-.73c0-.59-.36-.89-1.06-.89-.49,0-.88.14-.88.54,0,.43.3.56,1.01.79.87.28,1.81.48,1.81,1.43,0,.67-.42,1.23-1.74,1.23Z"/>
    <path class="st1" d="M392.83,271.41v.62l-1.67.09c-.42.03-.6-.2-.6-.6v-3.27h-.97v-.62h.97v-1.13l.72-.22v1.36h1.37v.62h-1.37v3.26l1.55-.1Z"/>
    <path class="st1" d="M395.56,267.53c1.24,0,2.06.79,2.06,2.15v.28h-3.48c.04.83.44,1.55,1.53,1.55.73,0,1.21-.35,1.37-1.03h.73c-.17.68-.7,1.63-2.1,1.63-1.58,0-2.24-1.08-2.24-2.35,0-1.42.89-2.23,2.14-2.23ZM396.91,269.41c0-.71-.47-1.27-1.35-1.27s-1.43.56-1.43,1.27h2.78Z"/>
    <path class="st1" d="M402.51,264.47v8.88h-.59v-8.88h.59Z"/>
    <path class="st1" d="M406.84,265.78h3.87v.62h-3.15v2.19h2.7v.62h-2.7v2.2h3.15v.62h-3.87v-6.25Z"/>
    <path class="st1" d="M413.4,272.12c-1.43,0-2.01-.67-2.01-1.71h.73c0,.76.44,1.12,1.29,1.12.68,0,1-.16,1-.61,0-.58-.59-.67-1.31-.9-.83-.27-1.51-.52-1.51-1.32,0-.7.59-1.16,1.6-1.16,1.37,0,1.79.75,1.79,1.48h-.73c0-.59-.36-.89-1.06-.89-.49,0-.88.14-.88.54,0,.43.3.56,1.01.79.87.28,1.81.48,1.81,1.43,0,.67-.42,1.23-1.74,1.23Z"/>
    <path class="st1" d="M418.13,267.53c.85,0,1.94.48,2.06,1.76h-.74c-.12-.84-.68-1.13-1.32-1.13-1.05,0-1.52.76-1.52,1.67s.48,1.67,1.52,1.67c.64,0,1.2-.29,1.32-1.13h.74c-.12,1.28-1.21,1.76-2.06,1.76-1.43,0-2.25-1.02-2.25-2.3s.82-2.29,2.25-2.29Z"/>
    <path class="st1" d="M423.34,267.53c1.4,0,2.31,1.01,2.31,2.29s-.91,2.3-2.31,2.3-2.33-1.01-2.33-2.3.92-2.29,2.33-2.29ZM423.34,271.5c1.04,0,1.6-.75,1.6-1.67s-.56-1.67-1.6-1.67-1.6.75-1.6,1.67.56,1.67,1.6,1.67Z"/>
    <path class="st1" d="M426.1,271.41h1.24v-5.36l-.91.08v-.62l1.03-.09c.41-.04.6.2.6.61v5.37h1.23v.62h-3.19v-.62Z"/>
    <path class="st1" d="M431.49,269.52l1.75-.17c-.04-.81-.48-1.21-1.24-1.21-.64,0-1.23.28-1.23,1.12h-.71c0-.91.69-1.73,1.94-1.73s1.97.82,1.97,2v1.88h.65v.62h-.78c-.34,0-.52-.19-.52-.51v-.24l.12-.46h-.21c-.17.67-.64,1.3-1.7,1.3-1.28,0-1.47-.85-1.47-1.31,0-.7.42-1.18,1.45-1.29ZM431.61,271.5c1,0,1.64-.69,1.64-1.6l-1.63.17c-.56.05-.84.22-.84.66,0,.51.32.78.83.78Z"/>
    <path class="st1" d="M438.41,265.78h3.87v.62h-3.15v2.19h2.7v.62h-2.7v2.2h3.15v.62h-3.87v-6.25Z"/>
    <path class="st1" d="M443.14,271.41h1.24v-5.36l-.91.08v-.62l1.03-.09c.41-.04.6.2.6.61v5.37h1.23v.62h-3.19v-.62Z"/>
    <path class="st1" d="M448.97,267.53c1.24,0,2.06.79,2.06,2.15v.28h-3.48c.04.83.44,1.55,1.53,1.55.73,0,1.21-.35,1.37-1.03h.73c-.17.68-.7,1.63-2.1,1.63-1.58,0-2.24-1.08-2.24-2.35,0-1.42.89-2.23,2.14-2.23ZM450.32,269.41c0-.71-.47-1.27-1.35-1.27s-1.43.56-1.43,1.27h2.78Z"/>
    <path class="st1" d="M456.02,267.62l-1.44,4.41h-1.47l-1.45-4.41h.71l1.37,4.2h.21l1.37-4.2h.7Z"/>
    <path class="st1" d="M458.03,269.52l1.75-.17c-.04-.81-.48-1.21-1.24-1.21-.64,0-1.23.28-1.23,1.12h-.71c0-.91.69-1.73,1.94-1.73s1.97.82,1.97,2v1.88h.65v.62h-.78c-.34,0-.52-.19-.52-.51v-.24l.12-.46h-.21c-.17.67-.64,1.3-1.7,1.3-1.28,0-1.47-.85-1.47-1.31,0-.7.42-1.18,1.45-1.29ZM458.15,271.5c1,0,1.64-.69,1.64-1.6l-1.63.17c-.56.05-.84.22-.84.66,0,.51.32.78.83.78Z"/>
    <path class="st1" d="M359.33,278.73h3.87v.62h-3.15v2.19h2.7v.62h-2.7v2.2h3.15v.62h-3.87v-6.25Z"/>
    <path class="st1" d="M365.89,285.07c-1.43,0-2.01-.67-2.01-1.71h.73c0,.76.44,1.12,1.29,1.12.68,0,1-.16,1-.61,0-.58-.59-.67-1.31-.9-.83-.27-1.51-.52-1.51-1.32,0-.7.59-1.16,1.6-1.16,1.37,0,1.79.75,1.79,1.48h-.73c0-.59-.36-.89-1.06-.89-.49,0-.88.14-.88.54,0,.43.3.56,1.01.79.87.28,1.81.48,1.81,1.43,0,.67-.42,1.23-1.74,1.23Z"/>
    <path class="st1" d="M370.63,280.48c.85,0,1.94.48,2.06,1.76h-.74c-.12-.84-.68-1.13-1.32-1.13-1.05,0-1.52.76-1.52,1.67s.48,1.67,1.52,1.67c.64,0,1.2-.29,1.32-1.13h.74c-.12,1.28-1.21,1.76-2.06,1.76-1.43,0-2.25-1.02-2.25-2.3s.82-2.29,2.25-2.29Z"/>
    <path class="st1" d="M375.84,280.48c1.4,0,2.31,1.01,2.31,2.29s-.91,2.3-2.31,2.3-2.33-1.01-2.33-2.3.92-2.29,2.33-2.29ZM375.84,284.45c1.04,0,1.6-.75,1.6-1.67s-.56-1.67-1.6-1.67-1.6.75-1.6,1.67.56,1.67,1.6,1.67Z"/>
    <path class="st1" d="M378.6,284.36h1.24v-5.36l-.91.08v-.62l1.03-.09c.41-.04.6.2.6.61v5.37h1.23v.62h-3.19v-.62Z"/>
    <path class="st1" d="M383.99,282.47l1.75-.17c-.04-.81-.48-1.21-1.24-1.21-.64,0-1.23.28-1.23,1.12h-.71c0-.91.69-1.73,1.94-1.73s1.97.82,1.97,2v1.88h.65v.62h-.78c-.34,0-.52-.19-.52-.51v-.24l.12-.46h-.21c-.17.67-.64,1.3-1.7,1.3-1.28,0-1.47-.85-1.47-1.31,0-.7.42-1.18,1.45-1.29ZM384.1,284.45c1,0,1.64-.69,1.64-1.6l-1.63.17c-.56.05-.84.22-.84.66,0,.51.32.78.83.78Z"/>
    <path class="st1" d="M392.1,281.85l3.81,3.13h-1.05l-3.23-2.66v2.66h-.73v-6.25h.73v2.66l3.23-2.66h1.05l-3.81,3.12Z"/>
    <path class="st1" d="M396.67,284.36h1.24v-3.25l-.91.08v-.62l1.02-.09c.42-.04.58.2.58.53v3.34h1.24v.62h-3.17v-.62ZM397.5,279.25c0-.34.28-.61.64-.61s.64.28.64.61c0,.35-.28.62-.64.62s-.64-.27-.64-.62Z"/>
    <path class="st1" d="M401.47,283.03v1.95h-.73v-4.41h.73v.76l-.12.5h.2c.18-.8.74-1.36,1.69-1.36s1.64.58,1.64,1.8v2.7h-.72v-2.6c0-.92-.36-1.28-1.12-1.28-.93,0-1.59.74-1.59,1.92Z"/>
    <path class="st1" d="M410.98,280.57v.62h-.37c-.25,0-.41.05-.58.18.19.23.3.55.3.93,0,.95-.74,1.54-2.07,2.03,1.03-.17,2.02-.03,2.02.95,0,1.17-1.21,1.32-4.16,1.32v-.62c2.53,0,3.43-.06,3.43-.75,0-.97-1.94-.5-3.03-.18l-.15-.51c.71-.2,1.41-.4,2.09-.61v-.2c-1.42.36-2.66-.1-2.66-1.46,0-1.21.99-1.78,2.26-1.78.53,0,1.08.13,1.5.43.46-.29.63-.34,1.03-.34h.39ZM409.6,282.28c0-.85-.6-1.18-1.53-1.18s-1.54.33-1.54,1.18.62,1.19,1.54,1.19,1.53-.33,1.53-1.19Z"/>
    <path class="st1" d="M415.44,284.98v-.65l.12-.5h-.21c-.19.68-.78,1.23-1.78,1.23-1.28,0-2.1-.98-2.1-2.3s.82-2.29,2.1-2.29c1,0,1.6.55,1.78,1.24h.21l-.12-.5v-2.76h.73v6.52h-.73ZM413.79,281.11c-.91,0-1.59.5-1.59,1.67s.67,1.67,1.59,1.67,1.66-.5,1.66-1.67-.74-1.67-1.66-1.67Z"/>
    <path class="st1" d="M419.57,280.48c1.4,0,2.31,1.01,2.31,2.29s-.91,2.3-2.31,2.3-2.33-1.01-2.33-2.3.92-2.29,2.33-2.29ZM419.57,284.45c1.04,0,1.6-.75,1.6-1.67s-.56-1.67-1.6-1.67-1.6.75-1.6,1.67.56,1.67,1.6,1.67Z"/>
    <path class="st1" d="M429.68,282.21v2.77h-.73v-2.61c0-.85-.19-1.27-.9-1.27-.88,0-1.4.78-1.4,1.93v1.94h-.73v-2.61c0-.85-.19-1.27-.9-1.27-.88,0-1.4.78-1.4,1.93v1.94h-.73v-4.41h.73v.75l-.12.5h.2c.18-.8.64-1.34,1.58-1.34.8,0,1.22.55,1.32,1.34h.13c.18-.8.64-1.34,1.58-1.34s1.37.74,1.37,1.72Z"/>
    <path class="st1" d="M435.02,281.85l3.81,3.13h-1.05l-3.23-2.66v2.66h-.73v-6.25h.73v2.66l3.23-2.66h1.05l-3.81,3.12Z"/>
    <path class="st1" d="M439.58,284.36h1.24v-3.25l-.91.08v-.62l1.02-.09c.42-.04.58.2.58.53v3.34h1.24v.62h-3.17v-.62ZM440.42,279.25c0-.34.28-.61.64-.61s.64.28.64.61c0,.35-.28.62-.64.62s-.64-.27-.64-.62Z"/>
    <path class="st1" d="M447.22,284.98v-.65l.12-.5h-.21c-.19.68-.78,1.23-1.78,1.23-1.28,0-2.1-.98-2.1-2.3s.82-2.29,2.1-2.29c1,0,1.6.55,1.78,1.24h.21l-.12-.5v-2.76h.73v6.52h-.73ZM445.56,281.11c-.91,0-1.59.5-1.59,1.67s.67,1.67,1.59,1.67,1.66-.5,1.66-1.67-.74-1.67-1.66-1.67Z"/>
    <path class="st1" d="M450.97,285.07c-1.43,0-2.01-.67-2.01-1.71h.73c0,.76.44,1.12,1.29,1.12.68,0,1-.16,1-.61,0-.58-.59-.67-1.31-.9-.83-.27-1.51-.52-1.51-1.32,0-.7.59-1.16,1.6-1.16,1.37,0,1.79.75,1.79,1.48h-.73c0-.59-.36-.89-1.06-.89-.49,0-.88.14-.88.54,0,.43.3.56,1.01.79.87.28,1.81.48,1.81,1.43,0,.67-.42,1.23-1.74,1.23Z"/>
  </g>
  <g>
    <rect class="st0" x="319.35" y="375.83" width="21.67" height="21.67" transform="translate(370.12 -120.23) rotate(45)"/>
    <rect class="st0" x="328.58" y="359.87" width="148.57" height="52.63"/>
  </g>
  <g>
    <path class="st1" d="M343.01,369.43h4.46v1.24h-3.04v1.8l2.84-.18v1.26l-2.84.18v1.95h-1.42v-6.25Z"/>
    <path class="st1" d="M348.17,375.02v-5.59h1.42v5.1l3.04-.09v1.24l-3.7.09c-.49,0-.76-.26-.76-.75Z"/>
    <path class="st1" d="M355.74,369.34c1.98,0,3.18,1.39,3.18,3.21s-1.21,3.22-3.18,3.22-3.19-1.39-3.19-3.22,1.21-3.21,3.19-3.21ZM355.74,374.53c1.18,0,1.76-.77,1.76-1.98s-.59-1.97-1.76-1.97-1.77.77-1.77,1.97.59,1.98,1.77,1.98Z"/>
    <path class="st1" d="M359.72,369.43h2.42c1.49,0,2.78.35,2.78,1.75,0,1.03-.83,1.31-1.59,1.4v.35h.91c.49,0,.75.27.75.75v2h-1.42v-2.2h-2.45v2.2h-1.42v-6.25ZM362.14,372.24c.84,0,1.37,0,1.37-.78s-.52-.79-1.37-.79h-1v1.57h1Z"/>
    <path class="st1" d="M368.64,370.67v3.77h1.42v1.24h-4.25v-1.24h1.42v-3.77h-1.42v-1.24h4.25v1.24h-1.42Z"/>
    <path class="st1" d="M375.2,373.67h-2.54l-.56,2h-1.44l1.8-6.25h2.93l1.81,6.25h-1.44l-.57-2ZM374.86,372.43l-.74-2.65h-.35l-.75,2.65h1.84Z"/>
    <path class="st1" d="M377.83,369.43h2.79l1.89,5.9h.35l-.27-.89v-5.01h1.42v6.25h-2.79l-1.89-5.9h-.35l.27.89v5.01h-1.42v-6.25Z"/>
    <path class="st1" d="M387.92,369.34c1.98,0,3.18,1.39,3.18,3.21s-1.21,3.22-3.18,3.22-3.19-1.39-3.19-3.22,1.21-3.21,3.19-3.21ZM389.43,367.21l.24,1.01-3.46.76-.24-1.01,3.46-.76ZM387.92,374.53c1.18,0,1.76-.77,1.76-1.98s-.59-1.97-1.76-1.97-1.77.77-1.77,1.97.59,1.98,1.77,1.98Z"/>
    <path class="st1" d="M396.92,371.62c0,1.9-1.21,2.2-2.78,2.2h-.82v1.86h-1.42v-6.25h2.24c1.58,0,2.78.3,2.78,2.19ZM395.51,371.62c0-.86-.43-.95-1.28-.95h-.91v1.91h.91c.84,0,1.28-.09,1.28-.96Z"/>
    <path class="st1" d="M400.65,369.34c1.98,0,3.18,1.39,3.18,3.21s-1.21,3.22-3.18,3.22-3.19-1.39-3.19-3.22,1.21-3.21,3.19-3.21ZM400.65,374.53c1.18,0,1.76-.77,1.76-1.98s-.59-1.97-1.76-1.97-1.77.77-1.77,1.97.59,1.98,1.77,1.98Z"/>
    <path class="st1" d="M404.63,375.02v-5.59h1.42v5.1l3.04-.09v1.24l-3.7.09c-.49,0-.76-.26-.76-.75Z"/>
    <path class="st1" d="M412.55,370.67v3.77h1.42v1.24h-4.25v-1.24h1.42v-3.77h-1.42v-1.24h4.25v1.24h-1.42Z"/>
    <path class="st1" d="M417.41,375.77c-2.25,0-3.09-.92-3.09-2.5h1.42c0,.96.48,1.26,1.72,1.26.91,0,1.21-.21,1.21-.55,0-.45-.76-.66-1.68-.97-1.32-.44-2.39-.8-2.39-2.02,0-1.06.84-1.65,2.46-1.65,1.92,0,2.78.98,2.78,2.22h-1.42c0-.76-.58-.98-1.36-.98-.64,0-1.04.14-1.04.46,0,.28.15.39,1.15.73,1.15.39,2.92.89,2.92,2.19,0,1.07-.75,1.81-2.68,1.81Z"/>
    <path class="st1" d="M345.96,382.29c1.6,0,2.64.96,2.83,2.5h-.73c-.14-1.2-.88-1.88-2.1-1.88-1.45,0-2.2,1.08-2.2,2.59s.75,2.6,2.2,2.6c1.22,0,1.96-.69,2.1-1.89h.73c-.19,1.55-1.23,2.51-2.83,2.51-1.83,0-2.93-1.39-2.93-3.22s1.09-3.21,2.93-3.21Z"/>
    <path class="st1" d="M351.75,384.13c1.24,0,2.06.79,2.06,2.15v.28h-3.48c.04.83.44,1.55,1.53,1.55.73,0,1.21-.35,1.37-1.03h.73c-.17.68-.7,1.63-2.1,1.63-1.58,0-2.24-1.08-2.24-2.35,0-1.42.89-2.23,2.14-2.23ZM353.09,386.01c0-.71-.47-1.27-1.35-1.27s-1.43.56-1.43,1.27h2.78Z"/>
    <path class="st1" d="M355.68,386.68v1.95h-.73v-4.41h.73v.76l-.12.5h.2c.18-.8.74-1.36,1.69-1.36s1.64.58,1.64,1.8v2.7h-.72v-2.6c0-.92-.36-1.28-1.12-1.28-.93,0-1.59.74-1.59,1.92Z"/>
    <path class="st1" d="M363.03,388.01v.62l-1.67.09c-.42.03-.6-.2-.6-.6v-3.27h-.97v-.62h.97v-1.13l.72-.22v1.36h1.37v.62h-1.37v3.26l1.55-.1Z"/>
    <path class="st1" d="M364.04,384.75c0-.42.19-.62.61-.6l2.45.08v.62l-2.33-.08v3.87h-.73v-3.88Z"/>
    <path class="st1" d="M369.8,384.13c1.4,0,2.31,1.01,2.31,2.29s-.91,2.3-2.31,2.3-2.33-1.01-2.33-2.3.92-2.29,2.33-2.29ZM369.8,388.1c1.04,0,1.6-.75,1.6-1.67s-.56-1.67-1.6-1.67-1.6.75-1.6,1.67.56,1.67,1.6,1.67Z"/>
    <path class="st1" d="M376.86,381.07v8.88h-.59v-8.88h.59Z"/>
    <path class="st1" d="M386.97,382.29c1.6,0,2.64.96,2.83,2.5h-.73c-.14-1.2-.88-1.88-2.1-1.88-1.45,0-2.2,1.08-2.2,2.59s.75,2.6,2.2,2.6c1.22,0,1.96-.69,2.1-1.89h.73c-.19,1.55-1.23,2.51-2.83,2.51-1.83,0-2.93-1.39-2.93-3.22s1.09-3.21,2.93-3.21Z"/>
    <path class="st1" d="M392.95,384.13c1.4,0,2.31,1.01,2.31,2.29s-.91,2.3-2.31,2.3-2.33-1.01-2.33-2.3.92-2.29,2.33-2.29ZM392.95,388.1c1.04,0,1.6-.75,1.6-1.67s-.56-1.67-1.6-1.67-1.6.75-1.6,1.67.56,1.67,1.6,1.67Z"/>
    <path class="st1" d="M400.8,390.24h-.73v-2.26l.12-.5h-.21c-.19.68-.77,1.23-1.77,1.23-1.29,0-2.11-.98-2.11-2.29s.82-2.3,2.11-2.3c1,0,1.59.55,1.77,1.24h.21l-.12-.5v-.65h.73v6.02ZM398.42,384.76c-.91,0-1.59.51-1.59,1.68s.67,1.67,1.59,1.67,1.66-.5,1.66-1.67-.74-1.68-1.66-1.68Z"/>
    <path class="st1" d="M405.4,386.18v-1.96h.72v4.41h-.72v-.76l.12-.5h-.2c-.18.8-.74,1.36-1.69,1.36s-1.65-.58-1.65-1.8v-2.7h.73v2.6c0,.92.35,1.28,1.12,1.28.93,0,1.59-.74,1.59-1.92Z"/>
    <path class="st1" d="M409.25,384.13c1.24,0,2.06.79,2.06,2.15v.28h-3.48c.04.83.44,1.55,1.53,1.55.73,0,1.21-.35,1.37-1.03h.73c-.17.68-.7,1.63-2.1,1.63-1.58,0-2.24-1.08-2.24-2.35,0-1.42.89-2.23,2.14-2.23ZM410.6,386.01c0-.71-.47-1.27-1.35-1.27s-1.43.56-1.43,1.27h2.78Z"/>
    <path class="st1" d="M412.04,388.01h1.24v-3.25l-.91.08v-.62l1.02-.09c.42-.04.58.2.58.53v3.34h1.24v.62h-3.17v-.62ZM412.87,382.9c0-.34.28-.61.64-.61s.64.28.64.61c0,.35-.28.62-.64.62s-.64-.27-.64-.62Z"/>
    <path class="st1" d="M416.12,384.75c0-.42.19-.62.61-.6l2.45.08v.62l-2.33-.08v3.87h-.73v-3.88Z"/>
    <path class="st1" d="M421.87,384.13c1.4,0,2.31,1.01,2.31,2.29s-.91,2.3-2.31,2.3-2.33-1.01-2.33-2.3.92-2.29,2.33-2.29ZM421.87,388.1c1.04,0,1.6-.75,1.6-1.67s-.56-1.67-1.6-1.67-1.6.75-1.6,1.67.56,1.67,1.6,1.67Z"/>
    <path class="st1" d="M426.94,388.72c-1.43,0-2.01-.67-2.01-1.71h.73c0,.76.44,1.12,1.29,1.12.68,0,1-.16,1-.61,0-.58-.59-.67-1.31-.9-.83-.27-1.51-.52-1.51-1.32,0-.7.59-1.16,1.6-1.16,1.37,0,1.79.75,1.79,1.48h-.73c0-.59-.36-.89-1.06-.89-.49,0-.88.14-.88.54,0,.43.3.56,1.01.79.87.28,1.81.48,1.81,1.43,0,.67-.42,1.23-1.74,1.23Z"/>
    <path class="st1" d="M345.68,401.67c-2.18,0-2.83-.97-2.83-2.43h.73c0,1.48.79,1.81,2.1,1.81,1.06,0,1.68-.26,1.68-1.01,0-.95-1.1-1.14-2.09-1.44-1.23-.37-2.13-.71-2.13-1.82,0-.96.67-1.54,2.22-1.54,1.84,0,2.47,1.13,2.47,2.15h-.73c0-1.06-.79-1.52-1.75-1.52-.86,0-1.49.21-1.49.9,0,.66.55.89,1.58,1.21,1.22.38,2.64.72,2.64,2.02,0,.93-.56,1.67-2.4,1.67Z"/>
    <path class="st1" d="M350.36,399.07l1.75-.17c-.04-.81-.48-1.21-1.24-1.21-.64,0-1.23.28-1.23,1.12h-.71c0-.91.69-1.73,1.94-1.73s1.97.82,1.97,2v1.88h.65v.62h-.78c-.34,0-.52-.19-.52-.51v-.24l.12-.46h-.21c-.17.67-.64,1.3-1.7,1.3-1.28,0-1.47-.85-1.47-1.31,0-.7.42-1.18,1.45-1.29ZM350.47,401.05c1,0,1.64-.69,1.64-1.6l-1.63.17c-.56.05-.84.22-.84.66,0,.51.32.78.83.78Z"/>
    <path class="st1" d="M355.04,399.63v1.95h-.73v-4.41h.73v.76l-.12.5h.2c.18-.8.74-1.36,1.69-1.36s1.64.58,1.64,1.8v2.7h-.72v-2.6c0-.92-.36-1.28-1.12-1.28-.93,0-1.59.74-1.59,1.92Z"/>
    <path class="st1" d="M362.39,400.96v.62l-1.67.09c-.42.03-.6-.2-.6-.6v-3.27h-.97v-.62h.97v-1.13l.72-.22v1.36h1.37v.62h-1.37v3.26l1.55-.1Z"/>
    <path class="st1" d="M364.68,399.07l1.75-.17c-.04-.81-.48-1.21-1.24-1.21-.64,0-1.23.28-1.23,1.12h-.71c0-.91.69-1.73,1.94-1.73s1.97.82,1.97,2v1.88h.65v.62h-.78c-.34,0-.52-.19-.52-.51v-.24l.12-.46h-.21c-.17.67-.64,1.3-1.7,1.3-1.28,0-1.47-.85-1.47-1.31,0-.7.42-1.18,1.45-1.29ZM364.8,401.05c1,0,1.64-.69,1.64-1.6l-1.63.17c-.56.05-.84.22-.84.66,0,.51.32.78.83.78Z"/>
    <path class="st1" d="M371.61,395.33h1.46l1.77,6.05h.2l1.78-6.05h1.45v6.25h-.73v-5.52l.12-.52h-.21l-1.79,6.05h-1.46l-1.79-6.05h-.2l.12.52v5.52h-.73v-6.25Z"/>
    <path class="st1" d="M381.6,397.09c1.4,0,2.31,1.01,2.31,2.29s-.91,2.3-2.31,2.3-2.33-1.01-2.33-2.3.92-2.29,2.33-2.29ZM381.6,401.05c1.04,0,1.6-.75,1.6-1.67s-.56-1.67-1.6-1.67-1.6.75-1.6,1.67.56,1.67,1.6,1.67ZM382.62,396.61l-1.02-.83-1.01.83-.43-.41,1.44-1.16,1.44,1.16-.42.41Z"/>
    <path class="st1" d="M385.65,399.63v1.95h-.73v-4.41h.73v.76l-.12.5h.2c.18-.8.74-1.36,1.69-1.36s1.64.58,1.64,1.8v2.7h-.72v-2.6c0-.92-.36-1.28-1.12-1.28-.93,0-1.59.74-1.59,1.92Z"/>
    <path class="st1" d="M389.99,400.96h1.24v-3.25l-.91.08v-.62l1.02-.09c.42-.04.58.2.58.53v3.34h1.24v.62h-3.17v-.62ZM390.83,395.85c0-.34.28-.61.64-.61s.64.28.64.61c0,.35-.28.62-.64.62s-.64-.27-.64-.62Z"/>
    <path class="st1" d="M395.91,397.09c.85,0,1.94.48,2.06,1.76h-.74c-.12-.84-.68-1.13-1.32-1.13-1.05,0-1.52.76-1.52,1.67s.48,1.67,1.52,1.67c.64,0,1.2-.29,1.32-1.13h.74c-.12,1.28-1.21,1.76-2.06,1.76-1.43,0-2.25-1.02-2.25-2.3s.82-2.29,2.25-2.29Z"/>
    <path class="st1" d="M400.3,399.07l1.75-.17c-.04-.81-.48-1.21-1.24-1.21-.64,0-1.23.28-1.23,1.12h-.71c0-.91.69-1.73,1.94-1.73s1.97.82,1.97,2v1.88h.65v.62h-.78c-.34,0-.52-.19-.52-.51v-.24l.12-.46h-.21c-.17.67-.64,1.3-1.7,1.3-1.28,0-1.47-.85-1.47-1.31,0-.7.42-1.18,1.45-1.29ZM400.42,401.05c1,0,1.64-.69,1.64-1.6l-1.63.17c-.56.05-.84.22-.84.66,0,.51.32.78.83.78Z"/>
  </g>
  <g>
    <rect class="st0" x="166.21" y="309.8" width="21.67" height="21.67" transform="translate(75.52 672.55) rotate(-135)"/>
    <rect class="st0" x="46.51" y="290.77" width="131.64" height="55.72" transform="translate(224.67 637.26) rotate(180)"/>
  </g>
  <g>
    <path class="st1" d="M68.55,303.45c0,2.7-1.74,3.13-3.4,3.13h-2.3v-6.25h2.3c1.67,0,3.4.43,3.4,3.12ZM67.13,303.45c0-1.79-.88-1.88-1.99-1.88h-.89v3.77h.89c1.11,0,1.99-.09,1.99-1.89Z"/>
    <path class="st1" d="M72.37,300.24c1.98,0,3.18,1.39,3.18,3.21s-1.21,3.22-3.18,3.22-3.19-1.39-3.19-3.22,1.21-3.21,3.19-3.21ZM72.37,305.42c1.18,0,1.76-.77,1.76-1.98s-.59-1.97-1.76-1.97-1.77.77-1.77,1.97.59,1.98,1.77,1.98Z"/>
    <path class="st1" d="M76.26,300.33h1.42v3.3c0,1.12.1,1.8,1.4,1.8s1.41-.68,1.41-1.8v-3.3h1.42v3.93c0,1.56-.98,2.41-2.83,2.41s-2.82-.85-2.82-2.41v-3.93Z"/>
    <path class="st1" d="M82.7,300.33h2.42c1.49,0,2.78.35,2.78,1.75,0,1.03-.83,1.31-1.59,1.4v.35h.91c.49,0,.75.27.75.75v2h-1.42v-2.2h-2.45v2.2h-1.42v-6.25ZM85.12,303.14c.84,0,1.37,0,1.37-.78s-.52-.79-1.37-.79h-1v1.57h1Z"/>
    <path class="st1" d="M93.14,304.57h-2.54l-.56,2h-1.44l1.8-6.25h2.93l1.81,6.25h-1.44l-.57-2ZM92.79,303.33l-.74-2.65h-.35l-.75,2.65h1.84Z"/>
    <path class="st1" d="M101.47,303.45c0,2.7-1.74,3.13-3.4,3.13h-2.3v-6.25h2.3c1.67,0,3.4.43,3.4,3.12ZM100.05,303.45c0-1.79-.88-1.88-1.99-1.88h-.89v3.77h.89c1.11,0,1.99-.09,1.99-1.89Z"/>
    <path class="st1" d="M105.28,300.24c1.98,0,3.18,1.39,3.18,3.21s-1.21,3.22-3.18,3.22-3.19-1.39-3.19-3.22,1.21-3.21,3.19-3.21ZM105.28,305.42c1.18,0,1.76-.77,1.76-1.98s-.59-1.97-1.76-1.97-1.77.77-1.77,1.97.59,1.98,1.77,1.98Z"/>
    <path class="st1" d="M112,306.66c-2.25,0-3.09-.92-3.09-2.5h1.42c0,.96.48,1.26,1.72,1.26.91,0,1.21-.21,1.21-.55,0-.45-.76-.66-1.68-.97-1.32-.44-2.39-.8-2.39-2.02,0-1.06.84-1.65,2.46-1.65,1.92,0,2.78.98,2.78,2.22h-1.42c0-.76-.58-.98-1.36-.98-.64,0-1.04.14-1.04.46,0,.28.15.39,1.15.73,1.15.39,2.92.89,2.92,2.19,0,1.07-.75,1.81-2.68,1.81Z"/>
    <path class="st1" d="M62.61,319.53v-.62l1.44.09c1.04.06,1.17-.58,1.17-2.34v-2.85l-1.64.09v-.62l1.83-.09c.35-.02.53.2.53.53v3.01c0,1.79-.19,2.99-1.89,2.88l-1.44-.09Z"/>
    <path class="st1" d="M68.39,317.02l1.75-.17c-.04-.81-.48-1.21-1.24-1.21-.64,0-1.23.28-1.23,1.12h-.71c0-.91.69-1.73,1.94-1.73s1.97.82,1.97,2v1.88h.65v.62h-.78c-.34,0-.52-.19-.52-.51v-.24l.12-.46h-.21c-.17.67-.64,1.3-1.7,1.3-1.28,0-1.47-.85-1.47-1.31,0-.7.42-1.18,1.45-1.29ZM68.51,318.99c1,0,1.64-.69,1.64-1.6l-1.63.17c-.56.05-.84.22-.84.66,0,.51.32.78.83.78Z"/>
    <path class="st1" d="M72.36,315.64c0-.42.19-.62.61-.6l2.45.08v.62l-2.33-.08v3.87h-.73v-3.88Z"/>
    <path class="st1" d="M79.75,319.53v-.65l.12-.5h-.21c-.19.68-.78,1.23-1.78,1.23-1.28,0-2.1-.98-2.1-2.3s.82-2.29,2.1-2.29c1,0,1.6.55,1.78,1.24h.21l-.12-.5v-2.76h.73v6.52h-.73ZM78.09,315.65c-.91,0-1.59.5-1.59,1.67s.67,1.67,1.59,1.67,1.66-.5,1.66-1.67-.74-1.67-1.66-1.67Z"/>
    <path class="st1" d="M81.5,318.91h1.24v-3.25l-.91.08v-.62l1.02-.09c.42-.04.58.2.58.53v3.34h1.24v.62h-3.17v-.62ZM82.33,313.8c0-.34.28-.61.64-.61s.64.28.64.61c0,.35-.28.62-.64.62s-.64-.27-.64-.62Z"/>
    <path class="st1" d="M92.37,316.75v2.77h-.73v-2.61c0-.85-.19-1.27-.9-1.27-.88,0-1.4.78-1.4,1.93v1.94h-.73v-2.61c0-.85-.19-1.27-.9-1.27-.88,0-1.4.78-1.4,1.93v1.94h-.73v-4.41h.73v.75l-.12.5h.2c.18-.8.64-1.34,1.58-1.34.8,0,1.22.55,1.32,1.34h.13c.18-.8.64-1.34,1.58-1.34s1.37.74,1.37,1.72Z"/>
    <path class="st1" d="M100.18,317.08h-2.51l-.78,2.45h-.73l2.02-6.25h1.49l2.01,6.25h-.72l-.79-2.45ZM99.98,316.46l-.96-2.98h-.2l-.95,2.98h2.11Z"/>
    <path class="st1" d="M109.42,316.75v2.77h-.73v-2.61c0-.85-.19-1.27-.9-1.27-.88,0-1.4.78-1.4,1.93v1.94h-.73v-2.61c0-.85-.19-1.27-.9-1.27-.88,0-1.4.78-1.4,1.93v1.94h-.73v-4.41h.73v.75l-.12.5h.2c.18-.8.64-1.34,1.58-1.34.8,0,1.22.55,1.32,1.34h.13c.18-.8.64-1.34,1.58-1.34s1.37.74,1.37,1.72Z"/>
    <path class="st1" d="M112.54,315.03c1.24,0,2.06.79,2.06,2.15v.28h-3.48c.04.83.44,1.55,1.53,1.55.73,0,1.21-.35,1.37-1.03h.73c-.17.68-.7,1.63-2.1,1.63-1.58,0-2.24-1.08-2.24-2.35,0-1.42.89-2.23,2.14-2.23ZM113.89,316.91c0-.71-.47-1.27-1.35-1.27s-1.43.56-1.43,1.27h2.78ZM113.86,313.13l.14.57-2.71.7-.15-.57,2.72-.7Z"/>
    <path class="st1" d="M115.75,315.64c0-.42.19-.62.61-.6l2.45.08v.62l-2.33-.08v3.87h-.73v-3.88Z"/>
    <path class="st1" d="M119.49,318.91h1.24v-3.25l-.91.08v-.62l1.02-.09c.42-.04.58.2.58.53v3.34h1.24v.62h-3.17v-.62ZM120.32,313.8c0-.34.28-.61.64-.61s.64.28.64.61c0,.35-.28.62-.64.62s-.64-.27-.64-.62Z"/>
    <path class="st1" d="M125.4,315.03c.85,0,1.94.48,2.06,1.76h-.74c-.12-.84-.68-1.13-1.32-1.13-1.05,0-1.52.76-1.52,1.67s.48,1.67,1.52,1.67c.64,0,1.2-.29,1.32-1.13h.74c-.12,1.28-1.21,1.76-2.06,1.76-1.43,0-2.25-1.02-2.25-2.3s.82-2.29,2.25-2.29Z"/>
    <path class="st1" d="M129.8,317.02l1.75-.17c-.04-.81-.48-1.21-1.24-1.21-.64,0-1.23.28-1.23,1.12h-.71c0-.91.69-1.73,1.94-1.73s1.97.82,1.97,2v1.88h.65v.62h-.78c-.34,0-.52-.19-.52-.51v-.24l.12-.46h-.21c-.17.67-.64,1.3-1.7,1.3-1.28,0-1.47-.85-1.47-1.31,0-.7.42-1.18,1.45-1.29ZM129.91,318.99c1,0,1.64-.69,1.64-1.6l-1.63.17c-.56.05-.84.22-.84.66,0,.51.32.78.83.78Z"/>
    <path class="st1" d="M62.96,326.23h3.87v.62h-3.15v2.19h2.7v.62h-2.7v2.2h3.15v.62h-3.87v-6.25Z"/>
    <path class="st1" d="M69.52,332.57c-1.43,0-2.01-.67-2.01-1.71h.73c0,.76.44,1.12,1.29,1.12.68,0,1-.16,1-.61,0-.58-.59-.67-1.31-.9-.83-.27-1.51-.52-1.51-1.32,0-.7.59-1.16,1.6-1.16,1.37,0,1.79.75,1.79,1.48h-.73c0-.59-.36-.89-1.06-.89-.49,0-.88.14-.88.54,0,.43.3.56,1.01.79.87.28,1.81.48,1.81,1.43,0,.67-.42,1.23-1.74,1.23Z"/>
    <path class="st1" d="M74.25,327.98c.85,0,1.94.48,2.06,1.76h-.74c-.12-.84-.68-1.13-1.32-1.13-1.05,0-1.52.76-1.52,1.67s.48,1.67,1.52,1.67c.64,0,1.2-.29,1.32-1.13h.74c-.12,1.28-1.21,1.76-2.06,1.76-1.43,0-2.25-1.02-2.25-2.3s.82-2.29,2.25-2.29Z"/>
    <path class="st1" d="M79.47,327.98c1.4,0,2.31,1.01,2.31,2.29s-.91,2.3-2.31,2.3-2.33-1.01-2.33-2.3.92-2.29,2.33-2.29ZM79.47,331.95c1.04,0,1.6-.75,1.6-1.67s-.56-1.67-1.6-1.67-1.6.75-1.6,1.67.56,1.67,1.6,1.67Z"/>
    <path class="st1" d="M82.22,331.86h1.24v-5.36l-.91.08v-.62l1.03-.09c.41-.04.6.2.6.61v5.37h1.23v.62h-3.19v-.62Z"/>
    <path class="st1" d="M87.61,329.97l1.75-.17c-.04-.81-.48-1.21-1.24-1.21-.64,0-1.23.28-1.23,1.12h-.71c0-.91.69-1.73,1.94-1.73s1.97.82,1.97,2v1.88h.65v.62h-.78c-.34,0-.52-.19-.52-.51v-.24l.12-.46h-.21c-.17.67-.64,1.3-1.7,1.3-1.28,0-1.47-.85-1.47-1.31,0-.7.42-1.18,1.45-1.29ZM87.73,331.95c1,0,1.64-.69,1.64-1.6l-1.63.17c-.56.05-.84.22-.84.66,0,.51.32.78.83.78Z"/>
    <path class="st1" d="M95.73,329.35l3.81,3.13h-1.05l-3.23-2.66v2.66h-.73v-6.25h.73v2.66l3.23-2.66h1.05l-3.81,3.12Z"/>
    <path class="st1" d="M100.29,331.86h1.24v-3.25l-.91.08v-.62l1.02-.09c.42-.04.58.2.58.53v3.34h1.24v.62h-3.17v-.62ZM101.12,326.75c0-.34.28-.61.64-.61s.64.28.64.61c0,.35-.28.62-.64.62s-.64-.27-.64-.62Z"/>
    <path class="st1" d="M105.1,330.53v1.95h-.73v-4.41h.73v.76l-.12.5h.2c.18-.8.74-1.36,1.69-1.36s1.64.58,1.64,1.8v2.7h-.72v-2.6c0-.92-.36-1.28-1.12-1.28-.93,0-1.59.74-1.59,1.92Z"/>
    <path class="st1" d="M114.6,328.07v.62h-.37c-.25,0-.41.05-.58.18.19.23.3.55.3.93,0,.95-.74,1.54-2.07,2.03,1.03-.17,2.02-.03,2.02.95,0,1.17-1.21,1.32-4.16,1.32v-.62c2.53,0,3.43-.06,3.43-.75,0-.97-1.94-.5-3.03-.18l-.15-.51c.71-.2,1.41-.4,2.09-.61v-.2c-1.42.36-2.66-.1-2.66-1.46,0-1.21.99-1.78,2.26-1.78.53,0,1.08.13,1.5.43.46-.29.63-.34,1.03-.34h.39ZM113.23,329.78c0-.85-.6-1.18-1.53-1.18s-1.54.33-1.54,1.18.62,1.19,1.54,1.19,1.53-.33,1.53-1.19Z"/>
    <path class="st1" d="M119.07,332.48v-.65l.12-.5h-.21c-.19.68-.78,1.23-1.78,1.23-1.28,0-2.1-.98-2.1-2.3s.82-2.29,2.1-2.29c1,0,1.6.55,1.78,1.24h.21l-.12-.5v-2.76h.73v6.52h-.73ZM117.41,328.6c-.91,0-1.59.5-1.59,1.67s.67,1.67,1.59,1.67,1.66-.5,1.66-1.67-.74-1.67-1.66-1.67Z"/>
    <path class="st1" d="M123.19,327.98c1.4,0,2.31,1.01,2.31,2.29s-.91,2.3-2.31,2.3-2.33-1.01-2.33-2.3.92-2.29,2.33-2.29ZM123.19,331.95c1.04,0,1.6-.75,1.6-1.67s-.56-1.67-1.6-1.67-1.6.75-1.6,1.67.56,1.67,1.6,1.67Z"/>
    <path class="st1" d="M133.31,329.7v2.77h-.73v-2.61c0-.85-.19-1.27-.9-1.27-.88,0-1.4.78-1.4,1.93v1.94h-.73v-2.61c0-.85-.19-1.27-.9-1.27-.88,0-1.4.78-1.4,1.93v1.94h-.73v-4.41h.73v.75l-.12.5h.2c.18-.8.64-1.34,1.58-1.34.8,0,1.22.55,1.32,1.34h.13c.18-.8.64-1.34,1.58-1.34s1.37.74,1.37,1.72Z"/>
    <path class="st1" d="M140.02,332.57c-2.18,0-2.83-.97-2.83-2.43h.73c0,1.48.79,1.81,2.1,1.81,1.06,0,1.68-.26,1.68-1.01,0-.95-1.1-1.14-2.09-1.44-1.23-.37-2.13-.71-2.13-1.82,0-.96.67-1.54,2.22-1.54,1.84,0,2.47,1.13,2.47,2.15h-.73c0-1.06-.79-1.52-1.75-1.52-.86,0-1.49.21-1.49.9,0,.66.55.89,1.58,1.21,1.22.38,2.64.72,2.64,2.02,0,.93-.56,1.67-2.4,1.67Z"/>
    <path class="st1" d="M145.5,327.98c.85,0,1.94.48,2.06,1.76h-.74c-.12-.84-.68-1.13-1.32-1.13-1.05,0-1.52.76-1.52,1.67s.48,1.67,1.52,1.67c.64,0,1.2-.29,1.32-1.13h.74c-.12,1.28-1.21,1.76-2.06,1.76-1.43,0-2.25-1.02-2.25-2.3s.82-2.29,2.25-2.29Z"/>
    <path class="st1" d="M152.76,329.78v2.7h-.72v-2.6c0-.92-.36-1.28-1.12-1.28-.93,0-1.59.74-1.59,1.92v1.95h-.73v-6.52h.73v2.87l-.12.5h.2c.18-.8.74-1.36,1.69-1.36s1.64.58,1.64,1.8Z"/>
    <path class="st1" d="M156.08,327.98c1.4,0,2.31,1.01,2.31,2.29s-.91,2.3-2.31,2.3-2.33-1.01-2.33-2.3.92-2.29,2.33-2.29ZM156.08,331.95c1.04,0,1.6-.75,1.6-1.67s-.56-1.67-1.6-1.67-1.6.75-1.6,1.67.56,1.67,1.6,1.67Z"/>
    <path class="st1" d="M161.56,327.98c1.4,0,2.31,1.01,2.31,2.29s-.91,2.3-2.31,2.3-2.33-1.01-2.33-2.3.92-2.29,2.33-2.29ZM161.56,331.95c1.04,0,1.6-.75,1.6-1.67s-.56-1.67-1.6-1.67-1.6.75-1.6,1.67.56,1.67,1.6,1.67Z"/>
    <path class="st1" d="M164.32,331.86h1.24v-5.36l-.91.08v-.62l1.03-.09c.41-.04.6.2.6.61v5.37h1.23v.62h-3.19v-.62Z"/>
  </g>
</svg>