<?xml version="1.0" encoding="UTF-8"?>
<svg id="Camada_1" xmlns="http://www.w3.org/2000/svg" version="1.1" viewBox="0 0 283.6 354.5">
  <!-- Generator: Adobe Illustrator 29.7.1, SVG Export Plug-In . SVG Version: 2.1.1 Build 8)  -->
  <defs>
    <style>
      .st0 {
        fill: #efefec;
      }
    </style>
  </defs>
  <path class="st0" d="M166.6,127.2c-4.7,0-8.5,3.8-8.5,8.5s3.8,8.5,8.5,8.5,8.5-3.8,8.5-8.5-3.8-8.5-8.5-8.5Z"/>
  <path class="st0" d="M128.6,138.1c-19.8,0-35.9,16.1-35.9,35.9s16.1,35.9,35.9,35.9,35.9-16.1,35.9-35.9-16.1-35.9-35.9-35.9ZM128.6,197c-12.7,0-23-10.3-23-23s10.3-23,23-23,23,10.3,23,23-10.3,23-23,23Z"/>
  <path class="st0" d="M157.1,246.9h-58.2c-24.1,0-43.8-19.6-43.8-43.8v-58.2c0-24.1,19.6-43.8,43.8-43.8h58.2c24.1,0,43.8,19.6,43.8,43.8v58.2c0,24.1-19.6,43.8-43.8,43.8ZM98.9,114.9c-16.6,0-30.1,13.5-30.1,30.1v58.2c0,16.6,13.5,30.1,30.1,30.1h58.2c16.6,0,30.1-13.5,30.1-30.1v-58.2c0-16.6-13.5-30.1-30.1-30.1h-58.2Z"/>
</svg>